<svg width="26" height="30" viewBox="0 0 26 30" fill="none" xmlns="http://www.w3.org/2000/svg">
<path d="M0.362854 20.934V19.3178C0.362854 18.5824 0.739109 17.9838 1.49162 17.522C2.24413 17.0603 3.23607 16.8294 4.46745 16.8294C4.68979 16.8294 4.90357 16.8337 5.1088 16.8422C5.31403 16.8508 5.51071 16.8721 5.69883 16.9063C5.4594 17.2655 5.27982 17.6418 5.16011 18.0351C5.04039 18.4285 4.98053 18.8389 4.98053 19.2665V20.934H0.362854ZM6.51976 20.934V19.2665C6.51976 18.7192 6.6694 18.219 6.9687 17.7657C7.26799 17.3125 7.69128 16.9149 8.23856 16.5728C8.78584 16.2308 9.44001 15.9743 10.2011 15.8032C10.9621 15.6322 11.7873 15.5467 12.6767 15.5467C13.5831 15.5467 14.4168 15.6322 15.1779 15.8032C15.939 15.9743 16.5931 16.2308 17.1404 16.5728C17.6877 16.9149 18.1067 17.3125 18.3974 17.7657C18.6882 18.219 18.8336 18.7192 18.8336 19.2665V20.934H6.51976ZM20.3728 20.934V19.2665C20.3728 18.8218 20.3172 18.4028 20.206 18.0095C20.0949 17.6161 19.9281 17.2484 19.7058 16.9063C19.8939 16.8721 20.0863 16.8508 20.283 16.8422C20.4797 16.8337 20.6806 16.8294 20.8859 16.8294C22.1172 16.8294 23.1092 17.056 23.8617 17.5092C24.6142 17.9624 24.9905 18.5653 24.9905 19.3178V20.934H20.3728ZM8.70032 18.8817H16.6786C16.5076 18.5396 16.033 18.2403 15.2549 17.9838C14.4767 17.7273 13.6173 17.599 12.6767 17.599C11.736 17.599 10.8766 17.7273 10.0985 17.9838C9.32029 18.2403 8.85425 18.5396 8.70032 18.8817ZM4.46745 15.8032C3.90307 15.8032 3.41993 15.6023 3.01802 15.2004C2.61611 14.7985 2.41515 14.3153 2.41515 13.7509C2.41515 13.1694 2.61611 12.682 3.01802 12.2887C3.41993 11.8953 3.90307 11.6986 4.46745 11.6986C5.04894 11.6986 5.53636 11.8953 5.92972 12.2887C6.32308 12.682 6.51976 13.1694 6.51976 13.7509C6.51976 14.3153 6.32308 14.7985 5.92972 15.2004C5.53636 15.6023 5.04894 15.8032 4.46745 15.8032ZM20.8859 15.8032C20.3215 15.8032 19.8383 15.6023 19.4364 15.2004C19.0345 14.7985 18.8336 14.3153 18.8336 13.7509C18.8336 13.1694 19.0345 12.682 19.4364 12.2887C19.8383 11.8953 20.3215 11.6986 20.8859 11.6986C21.4673 11.6986 21.9548 11.8953 22.3481 12.2887C22.7415 12.682 22.9382 13.1694 22.9382 13.7509C22.9382 14.3153 22.7415 14.7985 22.3481 15.2004C21.9548 15.6023 21.4673 15.8032 20.8859 15.8032ZM12.6767 14.7771C11.8215 14.7771 11.0947 14.4778 10.4961 13.8792C9.8975 13.2806 9.59821 12.5538 9.59821 11.6986C9.59821 10.8264 9.8975 10.0953 10.4961 9.50524C11.0947 8.9152 11.8215 8.62018 12.6767 8.62018C13.5489 8.62018 14.28 8.9152 14.8701 9.50524C15.4601 10.0953 15.7551 10.8264 15.7551 11.6986C15.7551 12.5538 15.4601 13.2806 14.8701 13.8792C14.28 14.4778 13.5489 14.7771 12.6767 14.7771ZM12.6767 12.7248C12.9674 12.7248 13.2111 12.6264 13.4078 12.4298C13.6045 12.2331 13.7028 11.9894 13.7028 11.6986C13.7028 11.4079 13.6045 11.1642 13.4078 10.9675C13.2111 10.7708 12.9674 10.6725 12.6767 10.6725C12.3859 10.6725 12.1422 10.7708 11.9455 10.9675C11.7488 11.1642 11.6505 11.4079 11.6505 11.6986C11.6505 11.9894 11.7488 12.2331 11.9455 12.4298C12.1422 12.6264 12.3859 12.7248 12.6767 12.7248Z" fill="#3B82F6"/>
</svg>
