<svg width="43" height="43" viewBox="0 0 43 43" fill="none" xmlns="http://www.w3.org/2000/svg">
<rect width="42.2399" height="42.2188" rx="8.44375" fill="#EF4444" fill-opacity="0.1"/>
<path d="M9.83253 30.3438L21.1202 10.8469L32.4078 30.3438H9.83253ZM13.3728 28.2914H28.8676L21.1202 14.9515L13.3728 28.2914ZM21.1202 27.2653C21.4109 27.2653 21.6546 27.167 21.8513 26.9703C22.048 26.7736 22.1463 26.5299 22.1463 26.2391C22.1463 25.9484 22.048 25.7047 21.8513 25.508C21.6546 25.3113 21.4109 25.213 21.1202 25.213C20.8294 25.213 20.5857 25.3113 20.3891 25.508C20.1924 25.7047 20.094 25.9484 20.094 26.2391C20.094 26.5299 20.1924 26.7736 20.3891 26.9703C20.5857 27.167 20.8294 27.2653 21.1202 27.2653ZM20.094 24.1868H22.1463V19.0561H20.094V24.1868Z" fill="#EF4444"/>
</svg>
