<svg width="22" height="26" viewBox="0 0 22 26" fill="none" xmlns="http://www.w3.org/2000/svg">
<path d="M7.03587 17.9427H14.0723V16.1836H7.03587V17.9427ZM7.03587 14.4245H14.0723V12.6654H7.03587V14.4245ZM5.27675 21.4609C4.793 21.4609 4.37887 21.2887 4.03438 20.9442C3.68989 20.5997 3.51764 20.1856 3.51764 19.7018V5.62891C3.51764 5.14515 3.68989 4.73102 4.03438 4.38653C4.37887 4.04204 4.793 3.86979 5.27675 3.86979H12.3132L17.5906 9.14713V19.7018C17.5906 20.1856 17.4183 20.5997 17.0738 20.9442C16.7293 21.2887 16.3152 21.4609 15.8314 21.4609H5.27675ZM11.4337 10.0267V5.62891H5.27675V19.7018H15.8314V10.0267H11.4337ZM5.27675 5.62891V10.0267V19.7018V5.62891Z" fill="#C084FC"/>
</svg>
