<svg width="43" height="43" viewBox="0 0 43 43" fill="none" xmlns="http://www.w3.org/2000/svg">
<rect width="42.2399" height="42.2188" rx="8.44375" fill="#22C55E" fill-opacity="0.1"/>
<path d="M19.6837 25.8299L26.9181 18.5955L25.4815 17.1589L19.6837 22.9567L16.7592 20.0321L15.3226 21.4687L19.6837 25.8299ZM21.1203 31.3711C19.7008 31.3711 18.3668 31.1017 17.1183 30.563C15.8699 30.0243 14.7838 29.2931 13.8603 28.3696C12.9368 27.4461 12.2056 26.3601 11.6669 25.1116C11.1282 23.8631 10.8588 22.5291 10.8588 21.1096C10.8588 19.6901 11.1282 18.3561 11.6669 17.1076C12.2056 15.8591 12.9368 14.7731 13.8603 13.8496C14.7838 12.926 15.8699 12.1949 17.1183 11.6562C18.3668 11.1175 19.7008 10.8481 21.1203 10.8481C22.5398 10.8481 23.8738 11.1175 25.1223 11.6562C26.3708 12.1949 27.4568 12.926 28.3803 13.8496C29.3039 14.7731 30.035 15.8591 30.5737 17.1076C31.1125 18.3561 31.3818 19.6901 31.3818 21.1096C31.3818 22.5291 31.1125 23.8631 30.5737 25.1116C30.035 26.3601 29.3039 27.4461 28.3803 28.3696C27.4568 29.2931 26.3708 30.0243 25.1223 30.563C23.8738 31.1017 22.5398 31.3711 21.1203 31.3711ZM21.1203 29.3188C23.4121 29.3188 25.3532 28.5235 26.9437 26.933C28.5343 25.3425 29.3295 23.4013 29.3295 21.1096C29.3295 18.8179 28.5343 16.8767 26.9437 15.2862C25.3532 13.6957 23.4121 12.9004 21.1203 12.9004C18.8286 12.9004 16.8875 13.6957 15.2969 15.2862C13.7064 16.8767 12.9111 18.8179 12.9111 21.1096C12.9111 23.4013 13.7064 25.3425 15.2969 26.933C16.8875 28.5235 18.8286 29.3188 21.1203 29.3188Z" fill="#22C55E"/>
</svg>
