<svg width="80" height="84" viewBox="0 0 80 84" fill="none" xmlns="http://www.w3.org/2000/svg">
<path d="M19.7881 13.1913C17.9558 13.1913 16.3984 13.8326 15.1159 15.1151C13.8333 16.3977 13.192 17.9551 13.192 19.7873C13.192 21.6195 13.8333 23.1769 15.1159 24.4595C16.3984 25.742 17.9558 26.3833 19.7881 26.3833C21.6203 26.3833 23.1777 25.742 24.4602 24.4595C25.7428 23.1769 26.3841 21.6195 26.3841 19.7873C26.3841 17.9551 25.7428 16.3977 24.4602 15.1151C23.1777 13.8326 21.6203 13.1913 19.7881 13.1913ZM19.7881 57.1647C17.9558 57.1647 16.3984 57.806 15.1159 59.0886C13.8333 60.3711 13.192 61.9285 13.192 63.7608C13.192 65.593 13.8333 67.1504 15.1159 68.4329C16.3984 69.7155 17.9558 70.3568 19.7881 70.3568C21.6203 70.3568 23.1777 69.7155 24.4602 68.4329C25.7428 67.1504 26.3841 65.593 26.3841 63.7608C26.3841 61.9285 25.7428 60.3711 24.4602 59.0886C23.1777 57.806 21.6203 57.1647 19.7881 57.1647ZM4.39735 -0.000762939H74.7549C76.0008 -0.000762939 77.0452 0.420647 77.888 1.26347C78.7308 2.1063 79.1522 3.15067 79.1522 4.39658V35.178C79.1522 36.4239 78.7308 37.4683 77.888 38.3111C77.0452 39.1539 76.0008 39.5754 74.7549 39.5754H4.39735C3.15143 39.5754 2.10706 39.1539 1.26424 38.3111C0.421412 37.4683 0 36.4239 0 35.178V4.39658C0 3.15067 0.421412 2.1063 1.26424 1.26347C2.10706 0.420647 3.15143 -0.000762939 4.39735 -0.000762939ZM8.79469 8.79393V30.7807H70.3575V8.79393H8.79469ZM4.39735 43.9727H74.7549C76.0008 43.9727 77.0452 44.3941 77.888 45.2369C78.7308 46.0798 79.1522 47.1241 79.1522 48.3701V79.1515C79.1522 80.3974 78.7308 81.4418 77.888 82.2846C77.0452 83.1274 76.0008 83.5488 74.7549 83.5488H4.39735C3.15143 83.5488 2.10706 83.1274 1.26424 82.2846C0.421412 81.4418 0 80.3974 0 79.1515V48.3701C0 47.1241 0.421412 46.0798 1.26424 45.2369C2.10706 44.3941 3.15143 43.9727 4.39735 43.9727ZM8.79469 52.7674V74.7541H70.3575V52.7674H8.79469Z" fill="white"/>
</svg>
