<svg width="112" height="140" viewBox="0 0 112 140" fill="none" xmlns="http://www.w3.org/2000/svg">
<path d="M38.4932 101.482L87.4845 87.4844L101.482 38.493L52.4907 52.4906L38.4932 101.482ZM69.9876 80.4856C67.0715 80.4856 64.5927 79.465 62.5514 77.4237C60.5101 75.3824 59.4895 72.9036 59.4895 69.9875C59.4895 67.0713 60.5101 64.5926 62.5514 62.5513C64.5927 60.51 67.0715 59.4893 69.9876 59.4893C72.9038 59.4893 75.3825 60.51 77.4238 62.5513C79.4651 64.5926 80.4858 67.0713 80.4858 69.9875C80.4858 72.9036 79.4651 75.3824 77.4238 77.4237C75.3825 79.465 72.9038 80.4856 69.9876 80.4856ZM69.9876 139.975C60.306 139.975 51.2076 138.138 42.6925 134.464C34.1773 130.789 26.7703 125.803 20.4714 119.504C14.1725 113.205 9.18588 105.798 5.51153 97.2826C1.83718 88.7675 0 79.6691 0 69.9875C0 60.3059 1.83718 51.2075 5.51153 42.6923C9.18588 34.1771 14.1725 26.7701 20.4714 20.4712C26.7703 14.1723 34.1773 9.18573 42.6925 5.51137C51.2076 1.83702 60.306 -0.000152588 69.9876 -0.000152588C79.6692 -0.000152588 88.7676 1.83702 97.2828 5.51137C105.798 9.18573 113.205 14.1723 119.504 20.4712C125.803 26.7701 130.789 34.1771 134.464 42.6923C138.138 51.2075 139.975 60.3059 139.975 69.9875C139.975 79.6691 138.138 88.7675 134.464 97.2826C130.789 105.798 125.803 113.205 119.504 119.504C113.205 125.803 105.798 130.789 97.2828 134.464C88.7676 138.138 79.6692 139.975 69.9876 139.975ZM69.9876 125.978C85.5015 125.978 98.7117 120.524 109.618 109.618C120.525 98.7116 125.978 85.5014 125.978 69.9875C125.978 54.4735 120.525 41.2634 109.618 30.357C98.7117 19.4506 85.5015 13.9974 69.9876 13.9974C54.4737 13.9974 41.2635 19.4506 30.3571 30.357C19.4507 41.2634 13.9975 54.4735 13.9975 69.9875C13.9975 85.5014 19.4507 98.7116 30.3571 109.618C41.2635 120.524 54.4737 125.978 69.9876 125.978Z" fill="white"/>
</svg>
