<svg width="26" height="31" viewBox="0 0 26 31" fill="none" xmlns="http://www.w3.org/2000/svg">
<path d="M12.5972 25.614C12.0198 25.614 11.5256 25.4085 11.1144 24.9973C10.7032 24.5861 10.4976 24.0918 10.4976 23.5144H14.6969C14.6969 24.0918 14.4913 24.5861 14.0801 24.9973C13.6689 25.4085 13.1746 25.614 12.5972 25.614ZM8.39798 22.4646V20.365H16.7965V22.4646H8.39798ZM8.66044 19.3152C7.45315 18.5978 6.49519 17.6355 5.78657 16.4282C5.07795 15.2209 4.72363 13.9086 4.72363 12.4914C4.72363 10.3043 5.48912 8.44521 7.0201 6.91423C8.55108 5.38325 10.4101 4.61776 12.5972 4.61776C14.7844 4.61776 16.6434 5.38325 18.1744 6.91423C19.7054 8.44521 20.4708 10.3043 20.4708 12.4914C20.4708 13.9086 20.1165 15.2209 19.4079 16.4282C18.6993 17.6355 17.7413 18.5978 16.534 19.3152H8.66044ZM9.29033 17.2155H15.9042C16.6915 16.6556 17.2995 15.9645 17.7282 15.1422C18.1569 14.3198 18.3712 13.4362 18.3712 12.4914C18.3712 10.8817 17.8113 9.5169 16.6915 8.39709C15.5717 7.27729 14.207 6.71739 12.5972 6.71739C10.9875 6.71739 9.62277 7.27729 8.50296 8.39709C7.38316 9.5169 6.82326 10.8817 6.82326 12.4914C6.82326 13.4362 7.0376 14.3198 7.46627 15.1422C7.89495 15.9645 8.50296 16.6556 9.29033 17.2155Z" fill="#0E1B13"/>
</svg>
