<svg width="21" height="24" viewBox="0 0 21 24" fill="none" xmlns="http://www.w3.org/2000/svg">
<path d="M7.31104 20.3325L5.75965 17.7196L2.82017 17.0664L3.10595 14.0453L1.10547 11.759L3.10595 9.47277L2.82017 6.45164L5.75965 5.79842L7.31104 3.18555L10.0872 4.36951L12.8634 3.18555L14.4148 5.79842L17.3543 6.45164L17.0685 9.47277L19.069 11.759L17.0685 14.0453L17.3543 17.0664L14.4148 17.7196L12.8634 20.3325L10.0872 19.1486L7.31104 20.3325ZM8.00508 18.2504L10.0872 17.3522L12.2102 18.2504L13.3533 16.2907L15.5987 15.76L15.3946 13.4737L16.9052 11.759L15.3946 10.0035L15.5987 7.71725L13.3533 7.22733L12.1693 5.26768L10.0872 6.16586L7.96426 5.26768L6.82112 7.22733L4.57569 7.71725L4.77982 10.0035L3.26925 11.759L4.77982 13.4737L4.57569 15.8008L6.82112 16.2907L8.00508 18.2504ZM9.22987 14.6577L13.8432 10.0443L12.7001 8.86038L9.22987 12.3306L7.47434 10.6159L6.33121 11.759L9.22987 14.6577Z" fill="#273054"/>
</svg>
