<svg width="26" height="31" viewBox="0 0 26 31" fill="none" xmlns="http://www.w3.org/2000/svg">
<path d="M0 21.4148V19.7614C0 19.009 0.384932 18.3966 1.1548 17.9242C1.92466 17.4518 2.93948 17.2156 4.19926 17.2156C4.42672 17.2156 4.64543 17.2199 4.85539 17.2287C5.06535 17.2374 5.26657 17.2593 5.45903 17.2943C5.21408 17.6617 5.03036 18.0467 4.90788 18.4491C4.7854 18.8515 4.72416 19.2715 4.72416 19.7089V21.4148H0ZM6.29889 21.4148V19.7089C6.29889 19.149 6.45198 18.6372 6.75818 18.1735C7.06438 17.7099 7.49742 17.3031 8.05733 16.9531C8.61723 16.6032 9.28648 16.3407 10.0651 16.1658C10.8437 15.9908 11.6879 15.9033 12.5978 15.9033C13.5251 15.9033 14.3781 15.9908 15.1567 16.1658C15.9353 16.3407 16.6046 16.6032 17.1645 16.9531C17.7244 17.3031 18.153 17.7099 18.4505 18.1735C18.7479 18.6372 18.8967 19.149 18.8967 19.7089V21.4148H6.29889ZM20.4714 21.4148V19.7089C20.4714 19.254 20.4145 18.8253 20.3008 18.4229C20.1871 18.0204 20.0165 17.6442 19.789 17.2943C19.9815 17.2593 20.1783 17.2374 20.3795 17.2287C20.5807 17.2199 20.7863 17.2156 20.9963 17.2156C22.2561 17.2156 23.2709 17.4474 24.0407 17.9111C24.8106 18.3747 25.1955 18.9915 25.1955 19.7614V21.4148H20.4714ZM8.52974 19.3152H16.692C16.5171 18.9653 16.0315 18.6591 15.2354 18.3966C14.4393 18.1342 13.5601 18.0029 12.5978 18.0029C11.6354 18.0029 10.7562 18.1342 9.96011 18.3966C9.164 18.6591 8.68721 18.9653 8.52974 19.3152ZM4.19926 16.1658C3.62186 16.1658 3.12757 15.9602 2.71639 15.549C2.30522 15.1378 2.09963 14.6435 2.09963 14.0661C2.09963 13.4712 2.30522 12.9726 2.71639 12.5701C3.12757 12.1677 3.62186 11.9665 4.19926 11.9665C4.79415 11.9665 5.29281 12.1677 5.69524 12.5701C6.09767 12.9726 6.29889 13.4712 6.29889 14.0661C6.29889 14.6435 6.09767 15.1378 5.69524 15.549C5.29281 15.9602 4.79415 16.1658 4.19926 16.1658ZM20.9963 16.1658C20.4189 16.1658 19.9246 15.9602 19.5134 15.549C19.1022 15.1378 18.8967 14.6435 18.8967 14.0661C18.8967 13.4712 19.1022 12.9726 19.5134 12.5701C19.9246 12.1677 20.4189 11.9665 20.9963 11.9665C21.5912 11.9665 22.0898 12.1677 22.4923 12.5701C22.8947 12.9726 23.0959 13.4712 23.0959 14.0661C23.0959 14.6435 22.8947 15.1378 22.4923 15.549C22.0898 15.9602 21.5912 16.1658 20.9963 16.1658ZM12.5978 15.1159C11.7229 15.1159 10.9793 14.8097 10.3669 14.1974C9.75453 13.585 9.44833 12.8413 9.44833 11.9665C9.44833 11.0742 9.75453 10.3262 10.3669 9.72252C10.9793 9.11888 11.7229 8.81706 12.5978 8.81706C13.4901 8.81706 14.2381 9.11888 14.8418 9.72252C15.4454 10.3262 15.7472 11.0742 15.7472 11.9665C15.7472 12.8413 15.4454 13.585 14.8418 14.1974C14.2381 14.8097 13.4901 15.1159 12.5978 15.1159ZM12.5978 13.0163C12.8952 13.0163 13.1446 12.9157 13.3458 12.7145C13.547 12.5133 13.6476 12.2639 13.6476 11.9665C13.6476 11.6691 13.547 11.4197 13.3458 11.2185C13.1446 11.0173 12.8952 10.9167 12.5978 10.9167C12.3003 10.9167 12.051 11.0173 11.8498 11.2185C11.6486 11.4197 11.548 11.6691 11.548 11.9665C11.548 12.2639 11.6486 12.5133 11.8498 12.7145C12.051 12.9157 12.3003 13.0163 12.5978 13.0163Z" fill="#0E1B13"/>
</svg>
