<svg width="26" height="31" viewBox="0 0 26 31" fill="none" xmlns="http://www.w3.org/2000/svg">
<path d="M12.5978 19.3152C13.91 19.3152 15.0255 18.8559 15.944 17.9373C16.8626 17.0187 17.3219 15.9033 17.3219 14.591C17.3219 13.2788 16.8626 12.1633 15.944 11.2447C15.0255 10.3262 13.91 9.86686 12.5978 9.86686C11.2855 9.86686 10.1701 10.3262 9.25148 11.2447C8.33289 12.1633 7.8736 13.2788 7.8736 14.591C7.8736 15.9033 8.33289 17.0187 9.25148 17.9373C10.1701 18.8559 11.2855 19.3152 12.5978 19.3152ZM12.5978 17.4255C11.8104 17.4255 11.1411 17.15 10.59 16.5988C10.0388 16.0476 9.76326 15.3784 9.76326 14.591C9.76326 13.8037 10.0388 13.1344 10.59 12.5833C11.1411 12.0321 11.8104 11.7565 12.5978 11.7565C13.3851 11.7565 14.0544 12.0321 14.6055 12.5833C15.1567 13.1344 15.4323 13.8037 15.4323 14.591C15.4323 15.3784 15.1567 16.0476 14.6055 16.5988C14.0544 17.15 13.3851 17.4255 12.5978 17.4255ZM12.5978 22.4646C10.0432 22.4646 7.71613 21.7516 5.6165 20.3256C3.51687 18.8996 1.99464 16.9881 1.0498 14.591C1.99464 12.194 3.51687 10.2824 5.6165 8.85642C7.71613 7.43042 10.0432 6.71742 12.5978 6.71742C15.1523 6.71742 17.4794 7.43042 19.579 8.85642C21.6787 10.2824 23.2009 12.194 24.1457 14.591C23.2009 16.9881 21.6787 18.8996 19.579 20.3256C17.4794 21.7516 15.1523 22.4646 12.5978 22.4646ZM12.5978 20.365C14.5749 20.365 16.3902 19.8445 18.0437 18.8034C19.6971 17.7623 20.9613 16.3582 21.8361 14.591C20.9613 12.8238 19.6971 11.4197 18.0437 10.3786C16.3902 9.33758 14.5749 8.81705 12.5978 8.81705C10.6206 8.81705 8.80531 9.33758 7.15185 10.3786C5.49839 11.4197 4.23424 12.8238 3.3594 14.591C4.23424 16.3582 5.49839 17.7623 7.15185 18.8034C8.80531 19.8445 10.6206 20.365 12.5978 20.365Z" fill="#0E1B13"/>
</svg>
