<svg width="22" height="16" viewBox="0 0 22 16" fill="none" xmlns="http://www.w3.org/2000/svg">
<path d="M12.6389 8.74913C11.8287 8.74913 11.14 8.46557 10.5729 7.89844C10.0058 7.33131 9.72222 6.64265 9.72222 5.83247C9.72222 5.02228 10.0058 4.33362 10.5729 3.76649C11.14 3.19936 11.8287 2.9158 12.6389 2.9158C13.4491 2.9158 14.1377 3.19936 14.7049 3.76649C15.272 4.33362 15.5556 5.02228 15.5556 5.83247C15.5556 6.64265 15.272 7.33131 14.7049 7.89844C14.1377 8.46557 13.4491 8.74913 12.6389 8.74913ZM5.83333 11.6658C5.29861 11.6658 4.84086 11.4754 4.46007 11.0946C4.07928 10.7138 3.88889 10.2561 3.88889 9.72135V1.94358C3.88889 1.40885 4.07928 0.951099 4.46007 0.570312C4.84086 0.189526 5.29861 -0.000867844 5.83333 -0.000867844H19.4444C19.9792 -0.000867844 20.4369 0.189526 20.8177 0.570312C21.1985 0.951099 21.3889 1.40885 21.3889 1.94358V9.72135C21.3889 10.2561 21.1985 10.7138 20.8177 11.0946C20.4369 11.4754 19.9792 11.6658 19.4444 11.6658H5.83333ZM7.77778 9.72135H17.5C17.5 9.18663 17.6904 8.72888 18.0712 8.34809C18.452 7.9673 18.9097 7.77691 19.4444 7.77691V3.88802C18.9097 3.88802 18.452 3.69763 18.0712 3.31684C17.6904 2.93605 17.5 2.4783 17.5 1.94358H7.77778C7.77778 2.4783 7.58738 2.93605 7.2066 3.31684C6.82581 3.69763 6.36806 3.88802 5.83333 3.88802V7.77691C6.36806 7.77691 6.82581 7.9673 7.2066 8.34809C7.58738 8.72888 7.77778 9.18663 7.77778 9.72135ZM18.4722 15.5547H1.94444C1.40972 15.5547 0.951968 15.3643 0.571181 14.9835C0.190394 14.6027 0 14.145 0 13.6102V2.9158H1.94444V13.6102H18.4722V15.5547Z" fill="#273054"/>
</svg>
