<svg width="18" height="18" viewBox="0 0 18 18" fill="none" xmlns="http://www.w3.org/2000/svg">
<path d="M7.77778 13.6111H9.72222L10.0139 12.1528C10.2083 12.0718 10.3906 11.9867 10.5608 11.8976C10.7309 11.8084 10.9051 11.6991 11.0833 11.5694L12.4931 12.0069L13.4653 10.3542L12.3472 9.38194C12.3796 9.15509 12.3958 8.94444 12.3958 8.75C12.3958 8.55556 12.3796 8.34491 12.3472 8.11806L13.4653 7.14583L12.4931 5.49306L11.0833 5.93056C10.9051 5.80093 10.7309 5.69155 10.5608 5.60243C10.3906 5.51331 10.2083 5.42824 10.0139 5.34722L9.72222 3.88889H7.77778L7.48611 5.34722C7.29167 5.42824 7.10938 5.51331 6.93924 5.60243C6.7691 5.69155 6.59491 5.80093 6.41667 5.93056L5.00694 5.49306L4.03472 7.14583L5.15278 8.11806C5.12037 8.34491 5.10417 8.55556 5.10417 8.75C5.10417 8.94444 5.12037 9.15509 5.15278 9.38194L4.03472 10.3542L5.00694 12.0069L6.41667 11.5694C6.59491 11.6991 6.7691 11.8084 6.93924 11.8976C7.10938 11.9867 7.29167 12.0718 7.48611 12.1528L7.77778 13.6111ZM8.75 10.6944C8.21528 10.6944 7.75752 10.5041 7.37674 10.1233C6.99595 9.74248 6.80556 9.28472 6.80556 8.75C6.80556 8.21528 6.99595 7.75752 7.37674 7.37674C7.75752 6.99595 8.21528 6.80556 8.75 6.80556C9.28472 6.80556 9.74248 6.99595 10.1233 7.37674C10.5041 7.75752 10.6944 8.21528 10.6944 8.75C10.6944 9.28472 10.5041 9.74248 10.1233 10.1233C9.74248 10.5041 9.28472 10.6944 8.75 10.6944ZM1.94444 17.5C1.40972 17.5 0.951968 17.3096 0.571181 16.9288C0.190394 16.548 0 16.0903 0 15.5556V1.94444C0 1.40972 0.190394 0.951967 0.571181 0.57118C0.951968 0.190393 1.40972 0 1.94444 0H15.5556C16.0903 0 16.548 0.190393 16.9288 0.57118C17.3096 0.951967 17.5 1.40972 17.5 1.94444V15.5556C17.5 16.0903 17.3096 16.548 16.9288 16.9288C16.548 17.3096 16.0903 17.5 15.5556 17.5H1.94444ZM1.94444 15.5556H15.5556V1.94444H1.94444V15.5556Z" fill="#273054"/>
</svg>
