<svg width="22" height="16" viewBox="0 0 22 16" fill="none" xmlns="http://www.w3.org/2000/svg">
<path d="M0 15.5547V12.8325C0 12.2815 0.141782 11.7752 0.425347 11.3134C0.708912 10.8516 1.08565 10.4991 1.55556 10.2561C2.56019 9.75376 3.58102 9.37703 4.61806 9.12587C5.65509 8.87471 6.70833 8.74913 7.77778 8.74913C8.84722 8.74913 9.90046 8.87471 10.9375 9.12587C11.9745 9.37703 12.9954 9.75376 14 10.2561C14.4699 10.4991 14.8466 10.8516 15.1302 11.3134C15.4138 11.7752 15.5556 12.2815 15.5556 12.8325V15.5547H0ZM17.5 15.5547V12.638C17.5 11.9251 17.3015 11.2405 16.9045 10.5842C16.5075 9.92795 15.9444 9.36487 15.2153 8.89497C16.0417 8.99219 16.8194 9.15828 17.5486 9.39323C18.2778 9.62818 18.9583 9.9158 19.5903 10.2561C20.1736 10.5802 20.6192 10.9407 20.9271 11.3377C21.235 11.7347 21.3889 12.1681 21.3889 12.638V15.5547H17.5ZM7.77778 7.77691C6.70833 7.77691 5.79282 7.39612 5.03125 6.63455C4.26968 5.87297 3.88889 4.95747 3.88889 3.88802C3.88889 2.81858 4.26968 1.90307 5.03125 1.14149C5.79282 0.379919 6.70833 -0.000867844 7.77778 -0.000867844C8.84722 -0.000867844 9.76273 0.379919 10.5243 1.14149C11.2859 1.90307 11.6667 2.81858 11.6667 3.88802C11.6667 4.95747 11.2859 5.87297 10.5243 6.63455C9.76273 7.39612 8.84722 7.77691 7.77778 7.77691ZM17.5 3.88802C17.5 4.95747 17.1192 5.87297 16.3576 6.63455C15.5961 7.39612 14.6806 7.77691 13.6111 7.77691C13.4329 7.77691 13.206 7.75665 12.9306 7.71615C12.6551 7.67564 12.4282 7.63108 12.25 7.58247C12.6875 7.06395 13.0237 6.48872 13.2587 5.85677C13.4936 5.22483 13.6111 4.56858 13.6111 3.88802C13.6111 3.20747 13.4936 2.55122 13.2587 1.91927C13.0237 1.28733 12.6875 0.712094 12.25 0.193576C12.4769 0.112557 12.7037 0.0598955 12.9306 0.0355902C13.1574 0.0112848 13.3843 -0.000867844 13.6111 -0.000867844C14.6806 -0.000867844 15.5961 0.379919 16.3576 1.14149C17.1192 1.90307 17.5 2.81858 17.5 3.88802ZM1.94444 13.6102H13.6111V12.8325C13.6111 12.6542 13.5666 12.4922 13.4774 12.3464C13.3883 12.2005 13.2708 12.0871 13.125 12.0061C12.25 11.5686 11.3669 11.2405 10.4757 11.0217C9.58449 10.803 8.68519 10.6936 7.77778 10.6936C6.87037 10.6936 5.97107 10.803 5.07986 11.0217C4.18866 11.2405 3.30556 11.5686 2.43056 12.0061C2.28472 12.0871 2.16725 12.2005 2.07812 12.3464C1.989 12.4922 1.94444 12.6542 1.94444 12.8325V13.6102ZM7.77778 5.83247C8.3125 5.83247 8.77026 5.64207 9.15104 5.26128C9.53183 4.8805 9.72222 4.42274 9.72222 3.88802C9.72222 3.3533 9.53183 2.89554 9.15104 2.51476C8.77026 2.13397 8.3125 1.94358 7.77778 1.94358C7.24306 1.94358 6.7853 2.13397 6.40451 2.51476C6.02373 2.89554 5.83333 3.3533 5.83333 3.88802C5.83333 4.42274 6.02373 4.8805 6.40451 5.26128C6.7853 5.64207 7.24306 5.83247 7.77778 5.83247Z" fill="#273054"/>
</svg>
