<svg width="26" height="30" viewBox="0 0 26 30" fill="none" xmlns="http://www.w3.org/2000/svg">
<path d="M11.0811 18.3628C11.4913 18.7731 12.0213 18.9739 12.6709 18.9654C13.3205 18.9568 13.7992 18.7218 14.1069 18.2602L19.851 9.64412L11.2349 15.3882C10.7733 15.6959 10.5297 16.166 10.5041 16.7985C10.4784 17.4311 10.6708 17.9525 11.0811 18.3628ZM12.6709 6.56695C13.6796 6.56695 14.6497 6.70798 15.5814 6.99006C16.5131 7.27213 17.3892 7.69524 18.2098 8.25939L16.261 9.49026C15.6968 9.19964 15.1113 8.98167 14.5044 8.83636C13.8975 8.69105 13.2864 8.61839 12.6709 8.61839C10.3972 8.61839 8.46119 9.4176 6.86277 11.016C5.26435 12.6144 4.46514 14.5505 4.46514 16.8242C4.46514 17.5422 4.56344 18.2516 4.76004 18.9526C4.95663 19.6535 5.23443 20.3116 5.59344 20.9271H19.7484C20.1416 20.2774 20.428 19.6022 20.6075 18.9013C20.787 18.2004 20.8767 17.4738 20.8767 16.7216C20.8767 16.1062 20.8041 15.5078 20.6587 14.9266C20.5134 14.3453 20.2955 13.7812 20.0048 13.2341L21.2357 11.2853C21.7486 12.0888 22.1546 12.9435 22.4538 13.8496C22.7529 14.7556 22.9111 15.6959 22.9282 16.6703C22.9452 17.6448 22.8341 18.5765 22.5948 19.4654C22.3555 20.3544 22.005 21.2006 21.5434 22.0041C21.3554 22.3118 21.0989 22.5511 20.7741 22.7221C20.4493 22.893 20.1074 22.9785 19.7484 22.9785H5.59344C5.23443 22.9785 4.89253 22.893 4.56771 22.7221C4.2429 22.5511 3.98647 22.3118 3.79842 22.0041C3.35394 21.2348 3.01203 20.4185 2.7727 19.5552C2.53336 18.6918 2.4137 17.7815 2.4137 16.8242C2.4137 15.4053 2.68295 14.0761 3.22145 12.8367C3.75996 11.5973 4.49506 10.5117 5.42676 9.58001C6.35846 8.64831 7.44829 7.91321 8.69625 7.3747C9.94421 6.8362 11.2691 6.56695 12.6709 6.56695Z" fill="#F59E0B"/>
</svg>
