<svg width="22" height="26" viewBox="0 0 22 26" fill="none" xmlns="http://www.w3.org/2000/svg">
<path d="M2.63843 22.3418V16.1849C2.63843 14.9682 3.06721 13.931 3.92478 13.0735C4.78235 12.2159 5.81949 11.7871 7.03621 11.7871H7.91577V4.75065C7.91577 4.26689 8.08802 3.85277 8.43251 3.50827C8.777 3.16378 9.19113 2.99154 9.67489 2.99154H11.434C11.9178 2.99154 12.3319 3.16378 12.6764 3.50827C13.0209 3.85277 13.1931 4.26689 13.1931 4.75065V11.7871H14.0727C15.2894 11.7871 16.3265 12.2159 17.1841 13.0735C18.0417 13.931 18.4705 14.9682 18.4705 16.1849V22.3418H2.63843ZM4.39754 20.5827H6.15666V17.944C6.15666 17.6948 6.24095 17.4859 6.40953 17.3173C6.57811 17.1487 6.78701 17.0645 7.03621 17.0645C7.28542 17.0645 7.49432 17.1487 7.6629 17.3173C7.83148 17.4859 7.91577 17.6948 7.91577 17.944V20.5827H9.67489V17.944C9.67489 17.6948 9.75918 17.4859 9.92776 17.3173C10.0963 17.1487 10.3052 17.0645 10.5544 17.0645C10.8037 17.0645 11.0125 17.1487 11.1811 17.3173C11.3497 17.4859 11.434 17.6948 11.434 17.944V20.5827H13.1931V17.944C13.1931 17.6948 13.2774 17.4859 13.446 17.3173C13.6146 17.1487 13.8235 17.0645 14.0727 17.0645C14.3219 17.0645 14.5308 17.1487 14.6994 17.3173C14.8679 17.4859 14.9522 17.6948 14.9522 17.944V20.5827H16.7113V16.1849C16.7113 15.4519 16.4548 14.8289 15.9417 14.3158C15.4287 13.8028 14.8056 13.5462 14.0727 13.5462H7.03621C6.30325 13.5462 5.68023 13.8028 5.16716 14.3158C4.65408 14.8289 4.39754 15.4519 4.39754 16.1849V20.5827ZM11.434 11.7871V4.75065H9.67489V11.7871H11.434Z" fill="#FBBF24"/>
</svg>
