<svg width="21" height="21" viewBox="0 0 21 21" fill="none" xmlns="http://www.w3.org/2000/svg">
<path d="M8.82489 14.9822L16.0592 7.74787L14.6226 6.31126L8.82489 12.109L5.90036 9.18448L4.46375 10.6211L8.82489 14.9822ZM10.2615 20.5234C8.84199 20.5234 7.508 20.2541 6.25952 19.7153C5.01103 19.1766 3.92502 18.4455 3.00149 17.5219C2.07795 16.5984 1.34682 15.5124 0.808093 14.2639C0.269364 13.0154 0 11.6814 0 10.2619C0 8.84243 0.269364 7.50843 0.808093 6.25995C1.34682 5.01147 2.07795 3.92546 3.00149 3.00192C3.92502 2.07839 5.01103 1.34726 6.25952 0.808527C7.508 0.269798 8.84199 0.000432968 10.2615 0.000432968C11.681 0.000432968 13.015 0.269798 14.2635 0.808527C15.512 1.34726 16.598 2.07839 17.5215 3.00192C18.445 3.92546 19.1762 5.01147 19.7149 6.25995C20.2536 7.50843 20.523 8.84243 20.523 10.2619C20.523 11.6814 20.2536 13.0154 19.7149 14.2639C19.1762 15.5124 18.445 16.5984 17.5215 17.5219C16.598 18.4455 15.512 19.1766 14.2635 19.7153C13.015 20.2541 11.681 20.5234 10.2615 20.5234ZM10.2615 18.4711C12.5532 18.4711 14.4944 17.6759 16.0849 16.0853C17.6754 14.4948 18.4707 12.5537 18.4707 10.2619C18.4707 7.9702 17.6754 6.02907 16.0849 4.43853C14.4944 2.848 12.5532 2.05273 10.2615 2.05273C7.96977 2.05273 6.02863 2.848 4.4381 4.43853C2.84757 6.02907 2.0523 7.9702 2.0523 10.2619C2.0523 12.5537 2.84757 14.4948 4.4381 16.0853C6.02863 17.6759 7.96977 18.4711 10.2615 18.4711Z" fill="#22C55E"/>
</svg>
