<svg width="13" height="13" viewBox="0 0 13 13" fill="none" xmlns="http://www.w3.org/2000/svg">
<path d="M6.33281 12.666C4.5649 12.666 3.06746 12.0525 1.84047 10.8255C0.613491 9.59856 0 8.10111 0 6.3332C0 4.56529 0.613491 3.06785 1.84047 1.84086C3.06746 0.613882 4.5649 0.000391006 6.33281 0.000391006C7.24315 0.000391006 8.11392 0.188396 8.9451 0.564407C9.77628 0.940418 10.4887 1.47805 11.0824 2.1773V0.000391006H12.6656V5.5416H7.12441V3.9584H10.4491C10.027 3.21957 9.44974 2.63906 8.71751 2.21688C7.98528 1.79469 7.19038 1.58359 6.33281 1.58359C5.01348 1.58359 3.89204 2.04536 2.96851 2.9689C2.04497 3.89243 1.5832 5.01387 1.5832 6.3332C1.5832 7.65254 2.04497 8.77397 2.96851 9.69751C3.89204 10.621 5.01348 11.0828 6.33281 11.0828C7.3487 11.0828 8.26564 10.7926 9.08363 10.2121C9.90162 9.63154 10.4755 8.86633 10.8054 7.91641H12.4677C12.0983 9.3149 11.3463 10.4561 10.2117 11.3401C9.07703 12.224 7.78408 12.666 6.33281 12.666Z" fill="white"/>
</svg>
