<svg width="22" height="26" viewBox="0 0 22 26" fill="none" xmlns="http://www.w3.org/2000/svg">
<path d="M10.5548 21.4629C9.33807 21.4629 8.19464 21.232 7.12452 20.7702C6.05439 20.3085 5.12352 19.6818 4.33192 18.8902C3.54032 18.0986 2.91364 17.1677 2.45187 16.0976C1.9901 15.0275 1.75922 13.884 1.75922 12.6673H3.51833C3.51833 13.6348 3.70157 14.5474 4.06805 15.4049C4.43454 16.2625 4.93662 17.0101 5.5743 17.6478C6.21198 18.2855 6.9596 18.7912 7.81717 19.165C8.67474 19.5389 9.58728 19.7258 10.5548 19.7258C12.5191 19.7258 14.183 19.0441 15.5463 17.6808C16.9096 16.3175 17.5912 14.6537 17.5912 12.6893C17.5912 10.725 16.9096 9.06113 15.5463 7.69782C14.183 6.3345 12.5191 5.65285 10.5548 5.65285C9.25011 5.65285 8.06638 5.97169 7.00358 6.60937C5.94078 7.24704 5.10153 8.09362 4.48584 9.14909H7.03656V10.9082H1.75922V5.63086H3.51833V7.38997C4.32459 6.31985 5.33608 5.46594 6.5528 4.82826C7.76953 4.19058 9.10352 3.87174 10.5548 3.87174C11.7715 3.87174 12.9149 4.10263 13.9851 4.56439C15.0552 5.02616 15.9861 5.65285 16.7777 6.44445C17.5693 7.23605 18.1959 8.16691 18.6577 9.23704C19.1195 10.3072 19.3504 11.4506 19.3504 12.6673C19.3504 13.884 19.1195 15.0275 18.6577 16.0976C18.1959 17.1677 17.5693 18.0986 16.7777 18.8902C15.9861 19.6818 15.0552 20.3085 13.9851 20.7702C12.9149 21.232 11.7715 21.4629 10.5548 21.4629ZM8.79568 16.1855C8.54647 16.1855 8.33757 16.1013 8.16899 15.9327C8.00041 15.7641 7.91612 15.5552 7.91612 15.306V12.6673C7.91612 12.4181 8.00041 12.2092 8.16899 12.0406C8.33757 11.8721 8.54647 11.7878 8.79568 11.7878V10.9082C8.79568 10.4244 8.96792 10.0103 9.31242 9.66583C9.65691 9.32133 10.071 9.14909 10.5548 9.14909C11.0385 9.14909 11.4527 9.32133 11.7972 9.66583C12.1417 10.0103 12.3139 10.4244 12.3139 10.9082V11.7878C12.5631 11.7878 12.772 11.8721 12.9406 12.0406C13.1092 12.2092 13.1935 12.4181 13.1935 12.6673V15.306C13.1935 15.5552 13.1092 15.7641 12.9406 15.9327C12.772 16.1013 12.5631 16.1855 12.3139 16.1855H8.79568ZM9.67523 11.7878H11.4343V10.9082C11.4343 10.659 11.3501 10.4501 11.1815 10.2815C11.0129 10.1129 10.804 10.0286 10.5548 10.0286C10.3056 10.0286 10.0967 10.1129 9.92811 10.2815C9.75952 10.4501 9.67523 10.659 9.67523 10.9082V11.7878Z" fill="#60A5FA"/>
</svg>
