<svg width="20" height="21" viewBox="0 0 20 21" fill="none" xmlns="http://www.w3.org/2000/svg">
<path d="M3.11042 20.7363V16.2781C2.12545 15.3795 1.36081 14.3297 0.816484 13.1288C0.272161 11.9278 0 10.662 0 9.33146C0 6.73945 0.907205 4.53624 2.72161 2.72183C4.53602 0.907419 6.73924 0.000213623 9.33125 0.000213623C11.4913 0.000213623 13.405 0.635258 15.0726 1.90534C16.7401 3.17543 17.8244 4.83 18.3255 6.86905L19.6734 12.1827C19.7598 12.511 19.6993 12.8091 19.4919 13.0769C19.2846 13.3448 19.0081 13.4787 18.6625 13.4787H16.5889V16.5891C16.5889 17.1593 16.3858 17.6475 15.9798 18.0536C15.5737 18.4597 15.0855 18.6627 14.5153 18.6627H12.4417V20.7363H10.3681V16.5891H14.5153V11.4051H17.3147L16.3297 7.38745C15.9322 5.81497 15.0855 4.53624 13.7895 3.55127C12.4935 2.56631 11.0074 2.07383 9.33125 2.07383C7.32676 2.07383 5.61603 2.77367 4.19906 4.17336C2.78209 5.57304 2.07361 7.27513 2.07361 9.27962C2.07361 10.3164 2.28529 11.3014 2.70865 12.2345C3.13202 13.1676 3.7325 13.9971 4.5101 14.7229L5.18403 15.3449V20.7363H3.11042ZM8.29445 13.4787H10.3681L10.5236 12.1827C10.6618 12.1308 10.7871 12.0704 10.8994 12.0012C11.0117 11.9321 11.1111 11.8544 11.1975 11.768L12.3898 12.2864L13.4266 10.5238L12.3898 9.74619C12.4244 9.60795 12.4417 9.46971 12.4417 9.33146C12.4417 9.19322 12.4244 9.05498 12.3898 8.91674L13.4266 8.13914L12.3898 6.37657L11.1975 6.89497C11.1111 6.80857 11.0117 6.73081 10.8994 6.66169C10.7871 6.59257 10.6618 6.53209 10.5236 6.48025L10.3681 5.18424H8.29445L8.13892 6.48025C8.00068 6.53209 7.8754 6.59257 7.76308 6.66169C7.65076 6.73081 7.5514 6.80857 7.465 6.89497L6.27267 6.37657L5.23587 8.13914L6.27267 8.91674C6.23811 9.05498 6.22083 9.19322 6.22083 9.33146C6.22083 9.46971 6.23811 9.60795 6.27267 9.74619L5.23587 10.5238L6.27267 12.2864L7.465 11.768C7.5514 11.8544 7.65076 11.9321 7.76308 12.0012C7.8754 12.0704 8.00068 12.1308 8.13892 12.1827L8.29445 13.4787ZM9.33125 10.8867C8.89925 10.8867 8.53205 10.7355 8.22964 10.4331C7.92724 10.1307 7.77604 9.76347 7.77604 9.33146C7.77604 8.89946 7.92724 8.53226 8.22964 8.22986C8.53205 7.92746 8.89925 7.77626 9.33125 7.77626C9.76325 7.77626 10.1305 7.92746 10.4329 8.22986C10.7353 8.53226 10.8865 8.89946 10.8865 9.33146C10.8865 9.76347 10.7353 10.1307 10.4329 10.4331C10.1305 10.7355 9.76325 10.8867 9.33125 10.8867Z" fill="#273054"/>
</svg>
