<svg width="16" height="22" viewBox="0 0 16 22" fill="none" xmlns="http://www.w3.org/2000/svg">
<path d="M3.62882 21.7734V19.3542H0V16.935H2.41921V4.83895H0V2.41973H3.62882V0.000520706H6.04803V2.41973H8.46725V0.000520706H10.8865V2.57093C11.9348 2.85318 12.8017 3.4227 13.4871 4.2795C14.1726 5.13631 14.5153 6.12919 14.5153 7.25816C14.5153 7.8428 14.4145 8.40225 14.2129 8.93649C14.0113 9.47073 13.729 9.94953 13.3662 10.3729C14.0718 10.7963 14.6413 11.3708 15.0747 12.0966C15.5082 12.8223 15.7249 13.6288 15.7249 14.5158C15.7249 15.8464 15.2511 16.9854 14.3036 17.9329C13.3561 18.8805 12.217 19.3542 10.8865 19.3542V21.7734H8.46725V19.3542H6.04803V21.7734H3.62882ZM4.83843 9.67737H9.67685C10.3421 9.67737 10.9117 9.44049 11.3854 8.96673C11.8592 8.49297 12.0961 7.92344 12.0961 7.25816C12.0961 6.59288 11.8592 6.02335 11.3854 5.54959C10.9117 5.07583 10.3421 4.83895 9.67685 4.83895H4.83843V9.67737ZM4.83843 16.935H10.8865C11.5517 16.935 12.1213 16.6981 12.595 16.2244C13.0688 15.7506 13.3057 15.1811 13.3057 14.5158C13.3057 13.8505 13.0688 13.281 12.595 12.8072C12.1213 12.3335 11.5517 12.0966 10.8865 12.0966H4.83843V16.935Z" fill="white"/>
</svg>
