<svg width="11" height="16" viewBox="0 0 11 16" fill="none" xmlns="http://www.w3.org/2000/svg">
<path d="M4.58953 15.8354V0.000612182H5.60395V15.8354H4.58953ZM7.28021 5.22734C7.23073 4.72838 7.01836 4.34076 6.64311 4.06447C6.26785 3.78819 5.75858 3.65004 5.11529 3.65004C4.67819 3.65004 4.30912 3.7119 4.00809 3.83561C3.70707 3.9552 3.47614 4.1222 3.31532 4.33663C3.15862 4.55106 3.08027 4.79436 3.08027 5.06652C3.07202 5.29332 3.11944 5.49126 3.22254 5.66032C3.32975 5.82939 3.47614 5.97578 3.66171 6.09949C3.84727 6.21908 4.0617 6.32423 4.30499 6.41495C4.54829 6.50155 4.80808 6.57578 5.08437 6.63763L6.22249 6.90979C6.77506 7.0335 7.28227 7.19845 7.74412 7.40463C8.20597 7.61081 8.60596 7.86442 8.9441 8.16544C9.28224 8.46647 9.54409 8.8211 9.72966 9.22935C9.91935 9.63759 10.0163 10.1056 10.0204 10.6334C10.0163 11.4087 9.81832 12.0809 9.42657 12.6499C9.03895 13.2149 8.47813 13.654 7.74412 13.9674C7.01423 14.2767 6.13383 14.4313 5.10292 14.4313C4.08026 14.4313 3.18955 14.2746 2.4308 13.9612C1.67617 13.6478 1.08648 13.1839 0.661749 12.5695C0.241136 11.951 0.0205206 11.186 -9.76334e-05 10.2747H2.59162C2.62048 10.6994 2.74213 11.0541 2.95656 11.3386C3.17511 11.619 3.46583 11.8314 3.82871 11.9757C4.19572 12.1159 4.61014 12.186 5.07199 12.186C5.5256 12.186 5.9194 12.12 6.25342 11.9881C6.59156 11.8561 6.85341 11.6726 7.03898 11.4376C7.22454 11.2025 7.31732 10.9324 7.31732 10.6273C7.31732 10.3427 7.23279 10.1036 7.06372 9.90975C6.89877 9.71594 6.65548 9.55099 6.33383 9.41491C6.01631 9.27883 5.62663 9.15512 5.16478 9.04378L3.78541 8.69739C2.71739 8.4376 1.8741 8.03142 1.25555 7.47886C0.637007 6.92629 0.329795 6.18197 0.333918 5.2459C0.329795 4.4789 0.533915 3.80881 0.94628 3.23562C1.36277 2.66243 1.9339 2.21501 2.65966 1.89337C3.38542 1.57172 4.21015 1.4109 5.13385 1.4109C6.07404 1.4109 6.89465 1.57172 7.59567 1.89337C8.30081 2.21501 8.84926 2.66243 9.24101 3.23562C9.63275 3.80881 9.83481 4.47271 9.84718 5.22734H7.28021Z" fill="#273054"/>
</svg>
