<svg width="22" height="21" viewBox="0 0 22 21" fill="none" xmlns="http://www.w3.org/2000/svg">
<path d="M17.2887 7.25785L16.1482 4.76952L13.6599 3.62903L16.1482 2.48855L17.2887 0.000213623L18.4292 2.48855L20.9176 3.62903L18.4292 4.76952L17.2887 7.25785ZM19.3623 14.5155L18.5329 12.7529L16.7703 11.9235L18.5329 11.094L19.3623 9.33146L20.1918 11.094L21.9544 11.9235L20.1918 12.7529L19.3623 14.5155ZM5.88387 20.7363L5.57283 18.2998C5.45187 18.248 5.32227 18.1789 5.18403 18.0925C5.04579 18.0061 4.93347 17.9197 4.84707 17.8333L2.56609 18.8182L0 14.3081L1.94401 12.8566C1.94401 12.7184 1.94401 12.5801 1.94401 12.4419C1.94401 12.3036 1.94401 12.1654 1.94401 12.0272L0 10.5756L2.56609 6.06553L4.84707 7.05049C4.93347 6.96409 5.04579 6.87769 5.18403 6.79129C5.32227 6.70489 5.45187 6.63577 5.57283 6.58393L5.88387 4.14744H11.0679L11.3789 6.58393C11.4999 6.63577 11.6295 6.70489 11.7677 6.79129C11.906 6.87769 12.0183 6.96409 12.1047 7.05049L14.3857 6.06553L16.9518 10.5756L15.0078 12.0272C15.0078 12.1654 15.0078 12.3036 15.0078 12.4419C15.0078 12.5801 15.0078 12.7184 15.0078 12.8566L16.9518 14.3081L14.3857 18.8182L12.1047 17.8333C12.0183 17.9197 11.906 18.0061 11.7677 18.0925C11.6295 18.1789 11.4999 18.248 11.3789 18.2998L11.0679 20.7363H5.88387ZM8.47589 15.5523C9.33989 15.5523 10.0743 15.2499 10.6791 14.6451C11.2839 14.0403 11.5863 13.3059 11.5863 12.4419C11.5863 11.5779 11.2839 10.8435 10.6791 10.2387C10.0743 9.63387 9.33989 9.33146 8.47589 9.33146C7.61188 9.33146 6.87748 9.63387 6.27267 10.2387C5.66787 10.8435 5.36547 11.5779 5.36547 12.4419C5.36547 13.3059 5.66787 14.0403 6.27267 14.6451C6.87748 15.2499 7.61188 15.5523 8.47589 15.5523ZM7.69828 18.6627H9.25349L9.46085 16.7965C9.96197 16.6582 10.3897 16.4811 10.7439 16.2651C11.0981 16.0491 11.4481 15.7597 11.7937 15.3968L13.5044 16.1744L14.2302 14.8784L12.7268 13.7379C12.865 13.3404 12.9342 12.9084 12.9342 12.4419C12.9342 11.9753 12.865 11.5433 12.7268 11.1459L14.2302 10.0054L13.5044 8.70938L11.7937 9.48699C11.4481 9.1241 11.0981 8.83466 10.7439 8.61866C10.3897 8.40266 9.96197 8.22554 9.46085 8.0873L9.25349 6.22105H7.69828L7.49092 8.0873C6.9898 8.22554 6.56212 8.40266 6.20787 8.61866C5.85363 8.83466 5.50371 9.1241 5.15811 9.48699L3.44738 8.70938L2.72161 10.0054L4.22498 11.1459C4.08674 11.5433 4.0133 11.9753 4.00466 12.4419C3.99602 12.9084 4.06946 13.3404 4.22498 13.7379L2.72161 14.8784L3.44738 16.1744L5.15811 15.3968C5.50371 15.7597 5.85363 16.0491 6.20787 16.2651C6.56212 16.4811 6.9898 16.6582 7.49092 16.7965L7.69828 18.6627Z" fill="#273054"/>
</svg>
