<svg width="17" height="21" viewBox="0 0 17 21" fill="none" xmlns="http://www.w3.org/2000/svg">
<path d="M0 17.6259V15.5523H2.07361V8.29466C2.07361 6.86041 2.50561 5.586 3.36962 4.47144C4.23362 3.35687 5.35683 2.62679 6.73924 2.28119V1.55542C6.73924 1.12342 6.89044 0.756218 7.19284 0.453815C7.49524 0.151415 7.86244 0.000213623 8.29445 0.000213623C8.72645 0.000213623 9.09365 0.151415 9.39605 0.453815C9.69845 0.756218 9.84965 1.12342 9.84965 1.55542V2.28119C11.2321 2.62679 12.3553 3.35687 13.2193 4.47144C14.0833 5.586 14.5153 6.86041 14.5153 8.29466V15.5523H16.5889V17.6259H0ZM8.29445 20.7363C7.7242 20.7363 7.23604 20.5333 6.82996 20.1272C6.42387 19.7211 6.22083 19.233 6.22083 18.6627H10.3681C10.3681 19.233 10.165 19.7211 9.75893 20.1272C9.35285 20.5333 8.86469 20.7363 8.29445 20.7363ZM4.14722 15.5523H12.4417V8.29466C12.4417 7.15417 12.0356 6.17785 11.2234 5.36568C10.4113 4.55352 9.43493 4.14744 8.29445 4.14744C7.15396 4.14744 6.17763 4.55352 5.36547 5.36568C4.5533 6.17785 4.14722 7.15417 4.14722 8.29466V15.5523Z" fill="#273054"/>
</svg>
