<svg width="23" height="17" viewBox="0 0 23 17" fill="none" xmlns="http://www.w3.org/2000/svg">
<path d="M13.4785 9.3322C12.6145 9.3322 11.8801 9.0298 11.2753 8.425C10.6705 7.8202 10.3681 7.08579 10.3681 6.22179C10.3681 5.35778 10.6705 4.62338 11.2753 4.01857C11.8801 3.41377 12.6145 3.11137 13.4785 3.11137C14.3425 3.11137 15.0769 3.41377 15.6817 4.01857C16.2865 4.62338 16.5889 5.35778 16.5889 6.22179C16.5889 7.08579 16.2865 7.8202 15.6817 8.425C15.0769 9.0298 14.3425 9.3322 13.4785 9.3322ZM6.22083 12.4426C5.65059 12.4426 5.16243 12.2396 4.75635 11.8335C4.35026 11.4274 4.14722 10.9393 4.14722 10.369V2.07456C4.14722 1.50432 4.35026 1.01616 4.75635 0.610077C5.16243 0.203995 5.65059 0.000953674 6.22083 0.000953674H20.7361C21.3064 0.000953674 21.7945 0.203995 22.2006 0.610077C22.6067 1.01616 22.8097 1.50432 22.8097 2.07456V10.369C22.8097 10.9393 22.6067 11.4274 22.2006 11.8335C21.7945 12.2396 21.3064 12.4426 20.7361 12.4426H6.22083ZM8.29445 10.369H18.6625C18.6625 9.79877 18.8655 9.3106 19.2716 8.90452C19.6777 8.49844 20.1659 8.2954 20.7361 8.2954V4.14818C20.1659 4.14818 19.6777 3.94514 19.2716 3.53905C18.8655 3.13297 18.6625 2.64481 18.6625 2.07456H8.29445C8.29445 2.64481 8.0914 3.13297 7.68532 3.53905C7.27924 3.94514 6.79108 4.14818 6.22083 4.14818V8.2954C6.79108 8.2954 7.27924 8.49844 7.68532 8.90452C8.0914 9.3106 8.29445 9.79877 8.29445 10.369ZM19.6993 16.5898H2.07361C1.50337 16.5898 1.01521 16.3868 0.609123 15.9807C0.203041 15.5746 0 15.0865 0 14.5162V3.11137H2.07361V14.5162H19.6993V16.5898Z" fill="#273054"/>
</svg>
