<svg width="23" height="22" viewBox="0 0 23 22" fill="none" xmlns="http://www.w3.org/2000/svg">
<path d="M2.41921 19.3542V2.41973C2.41921 2.41973 2.41921 2.8683 2.41921 3.76542C2.41921 4.66255 2.41921 5.82679 2.41921 7.25816V14.5158C2.41921 15.9472 2.41921 17.1114 2.41921 18.0085C2.41921 18.9057 2.41921 19.3542 2.41921 19.3542ZM2.41921 21.7734C1.75393 21.7734 1.18441 21.5366 0.710644 21.0628C0.236881 20.589 0 20.0195 0 19.3542V2.41973C0 1.75445 0.236881 1.18493 0.710644 0.711164C1.18441 0.237402 1.75393 0.000520706 2.41921 0.000520706H19.3537C20.019 0.000520706 20.5885 0.237402 21.0623 0.711164C21.536 1.18493 21.7729 1.75445 21.7729 2.41973V5.44375H19.3537V2.41973H2.41921V19.3542H19.3537V16.3302H21.7729V19.3542C21.7729 20.0195 21.536 20.589 21.0623 21.0628C20.5885 21.5366 20.019 21.7734 19.3537 21.7734H2.41921ZM12.0961 16.935C11.4308 16.935 10.8613 16.6981 10.3875 16.2244C9.91373 15.7506 9.67685 15.1811 9.67685 14.5158V7.25816C9.67685 6.59288 9.91373 6.02335 10.3875 5.54959C10.8613 5.07583 11.4308 4.83895 12.0961 4.83895H20.5633C21.2286 4.83895 21.7981 5.07583 22.2719 5.54959C22.7456 6.02335 22.9825 6.59288 22.9825 7.25816V14.5158C22.9825 15.1811 22.7456 15.7506 22.2719 16.2244C21.7981 16.6981 21.2286 16.935 20.5633 16.935H12.0961ZM20.5633 14.5158V7.25816H12.0961V14.5158H20.5633ZM15.7249 12.7014C16.2289 12.7014 16.6573 12.525 17.0101 12.1722C17.3629 11.8194 17.5393 11.391 17.5393 10.887C17.5393 10.383 17.3629 9.95457 17.0101 9.60177C16.6573 9.24897 16.2289 9.07257 15.7249 9.07257C15.2209 9.07257 14.7925 9.24897 14.4397 9.60177C14.0869 9.95457 13.9105 10.383 13.9105 10.887C13.9105 11.391 14.0869 11.8194 14.4397 12.1722C14.7925 12.525 15.2209 12.7014 15.7249 12.7014Z" fill="white"/>
</svg>
