<svg width="20" height="20" viewBox="0 0 20 20" fill="none" xmlns="http://www.w3.org/2000/svg">
<path d="M4.23362 8.46706C3.06434 8.46706 2.06641 8.05378 1.23985 7.22721C0.413282 6.40065 0 5.40272 0 4.23344C0 3.06415 0.413282 2.06623 1.23985 1.23966C2.06641 0.413095 3.06434 -0.00018692 4.23362 -0.00018692C5.40291 -0.00018692 6.40083 0.413095 7.2274 1.23966C8.05396 2.06623 8.46725 3.06415 8.46725 4.23344C8.46725 5.40272 8.05396 6.40065 7.2274 7.22721C6.40083 8.05378 5.40291 8.46706 4.23362 8.46706ZM4.23362 6.04785C4.73763 6.04785 5.16603 5.87144 5.51883 5.51864C5.87163 5.16584 6.04803 4.73744 6.04803 4.23344C6.04803 3.72943 5.87163 3.30103 5.51883 2.94823C5.16603 2.59543 4.73763 2.41903 4.23362 2.41903C3.72962 2.41903 3.30122 2.59543 2.94842 2.94823C2.59561 3.30103 2.41921 3.72943 2.41921 4.23344C2.41921 4.73744 2.59561 5.16584 2.94842 5.51864C3.30122 5.87144 3.72962 6.04785 4.23362 6.04785ZM15.1201 19.3535C13.9508 19.3535 12.9529 18.9402 12.1263 18.1137C11.2997 17.2871 10.8865 16.2892 10.8865 15.1199C10.8865 13.9506 11.2997 12.9527 12.1263 12.1261C12.9529 11.2996 13.9508 10.8863 15.1201 10.8863C16.2894 10.8863 17.2873 11.2996 18.1139 12.1261C18.9404 12.9527 19.3537 13.9506 19.3537 15.1199C19.3537 16.2892 18.9404 17.2871 18.1139 18.1137C17.2873 18.9402 16.2894 19.3535 15.1201 19.3535ZM15.1201 16.9343C15.6241 16.9343 16.0525 16.7579 16.4053 16.4051C16.7581 16.0523 16.9345 15.6239 16.9345 15.1199C16.9345 14.6159 16.7581 14.1875 16.4053 13.8347C16.0525 13.4819 15.6241 13.3055 15.1201 13.3055C14.6161 13.3055 14.1877 13.4819 13.8349 13.8347C13.4821 14.1875 13.3057 14.6159 13.3057 15.1199C13.3057 15.6239 13.4821 16.0523 13.8349 16.4051C14.1877 16.7579 14.6161 16.9343 15.1201 16.9343ZM1.69345 19.3535L0 17.6601L17.6603 -0.00018692L19.3537 1.69326L1.69345 19.3535Z" fill="#273054"/>
</svg>
