<svg width="25" height="20" viewBox="0 0 25 20" fill="none" xmlns="http://www.w3.org/2000/svg">
<path d="M24.1921 2.41903V16.9343C24.1921 17.5996 23.9552 18.1691 23.4815 18.6429C23.0077 19.1166 22.4382 19.3535 21.7729 19.3535H2.41921C1.75393 19.3535 1.18441 19.1166 0.710644 18.6429C0.236881 18.1691 0 17.5996 0 16.9343V2.41903C0 1.75374 0.236881 1.18422 0.710644 0.710457C1.18441 0.236694 1.75393 -0.00018692 2.41921 -0.00018692H21.7729C22.4382 -0.00018692 23.0077 0.236694 23.4815 0.710457C23.9552 1.18422 24.1921 1.75374 24.1921 2.41903ZM2.41921 4.83824H21.7729V2.41903H2.41921V4.83824ZM2.41921 9.67666V16.9343H21.7729V9.67666H2.41921Z" fill="#22C55E"/>
</svg>
