<svg width="20" height="25" viewBox="0 0 20 25" fill="none" xmlns="http://www.w3.org/2000/svg">
<path d="M9.67282 24.1816C6.87173 23.4763 4.55933 21.8692 2.7356 19.3603C0.911865 16.8515 0 14.0655 0 11.0024V3.62689L9.67282 -0.000417709L19.3456 3.62689V11.0024C19.3456 14.0655 18.4338 16.8515 16.6101 19.3603C14.7863 21.8692 12.4739 23.4763 9.67282 24.1816ZM9.67282 21.6425C11.7686 20.9775 13.5016 19.6475 14.872 17.6525C16.2423 15.6575 16.9274 13.4408 16.9274 11.0024V5.28941L9.67282 2.56893L2.41821 5.28941V11.0024C2.41821 13.4408 3.10336 15.6575 4.47368 17.6525C5.844 19.6475 7.57704 20.9775 9.67282 21.6425Z" fill="#F97316"/>
</svg>
