<svg width="27" height="20" viewBox="0 0 27 20" fill="none" xmlns="http://www.w3.org/2000/svg">
<path d="M15.7249 10.8863C14.7169 10.8863 13.8601 10.5335 13.1545 9.82787C12.4489 9.12226 12.0961 8.26546 12.0961 7.25745C12.0961 6.24945 12.4489 5.39264 13.1545 4.68704C13.8601 3.98143 14.7169 3.62863 15.7249 3.62863C16.7329 3.62863 17.5897 3.98143 18.2953 4.68704C19.0009 5.39264 19.3537 6.24945 19.3537 7.25745C19.3537 8.26546 19.0009 9.12226 18.2953 9.82787C17.5897 10.5335 16.7329 10.8863 15.7249 10.8863ZM7.25764 14.5151C6.59236 14.5151 6.02283 14.2782 5.54907 13.8044C5.07531 13.3307 4.83843 12.7612 4.83843 12.0959V2.41903C4.83843 1.75374 5.07531 1.18422 5.54907 0.710457C6.02283 0.236694 6.59236 -0.00018692 7.25764 -0.00018692H24.1921C24.8574 -0.00018692 25.4269 0.236694 25.9007 0.710457C26.3745 1.18422 26.6113 1.75374 26.6113 2.41903V12.0959C26.6113 12.7612 26.3745 13.3307 25.9007 13.8044C25.4269 14.2782 24.8574 14.5151 24.1921 14.5151H7.25764ZM9.67685 12.0959H21.7729C21.7729 11.4306 22.0098 10.8611 22.4836 10.3873C22.9573 9.91355 23.5268 9.67666 24.1921 9.67666V4.83824C23.5268 4.83824 22.9573 4.60136 22.4836 4.12759C22.0098 3.65383 21.7729 3.08431 21.7729 2.41903H9.67685C9.67685 3.08431 9.43997 3.65383 8.96621 4.12759C8.49245 4.60136 7.92292 4.83824 7.25764 4.83824V9.67666C7.92292 9.67666 8.49245 9.91355 8.96621 10.3873C9.43997 10.8611 9.67685 11.4306 9.67685 12.0959ZM22.9825 19.3535H2.41921C1.75393 19.3535 1.18441 19.1166 0.710644 18.6429C0.236881 18.1691 0 17.5996 0 16.9343V3.62863H2.41921V16.9343H22.9825V19.3535Z" fill="white"/>
</svg>
