<svg width="20" height="15" viewBox="0 0 20 15" fill="none" xmlns="http://www.w3.org/2000/svg">
<path d="M15.396 9.05635V6.33941H12.6791V4.52811H15.396V1.81117H17.2073V4.52811H19.9242V6.33941H17.2073V9.05635H15.396ZM7.24518 7.24506C6.24897 7.24506 5.39615 6.89034 4.68673 6.18092C3.9773 5.4715 3.62259 4.61868 3.62259 3.62247C3.62259 2.62625 3.9773 1.77343 4.68673 1.06401C5.39615 0.354588 6.24897 -0.000123978 7.24518 -0.000123978C8.24139 -0.000123978 9.09421 0.354588 9.80363 1.06401C10.5131 1.77343 10.8678 2.62625 10.8678 3.62247C10.8678 4.61868 10.5131 5.4715 9.80363 6.18092C9.09421 6.89034 8.24139 7.24506 7.24518 7.24506ZM0 14.4902V11.9544C0 11.4412 0.132074 10.9695 0.396221 10.5393C0.660368 10.1092 1.01131 9.78087 1.44904 9.55446C2.38487 9.08654 3.3358 8.7356 4.30183 8.50164C5.26785 8.26768 6.24897 8.1507 7.24518 8.1507C8.24139 8.1507 9.22251 8.26768 10.1885 8.50164C11.1546 8.7356 12.1055 9.08654 13.0413 9.55446C13.4791 9.78087 13.83 10.1092 14.0941 10.5393C14.3583 10.9695 14.4904 11.4412 14.4904 11.9544V14.4902H0ZM1.81129 12.6789H12.6791V11.9544C12.6791 11.7884 12.6376 11.6374 12.5545 11.5016C12.4715 11.3658 12.3621 11.2601 12.2262 11.1846C11.4112 10.7771 10.5885 10.4714 9.75835 10.2677C8.92817 10.0639 8.09045 9.962 7.24518 9.962C6.39991 9.962 5.56218 10.0639 4.73201 10.2677C3.90183 10.4714 3.0792 10.7771 2.26412 11.1846C2.12827 11.2601 2.01884 11.3658 1.93582 11.5016C1.8528 11.6374 1.81129 11.7884 1.81129 11.9544V12.6789ZM7.24518 5.43376C7.74329 5.43376 8.16969 5.2564 8.52441 4.90169C8.87912 4.54698 9.05647 4.12057 9.05647 3.62247C9.05647 3.12436 8.87912 2.69795 8.52441 2.34324C8.16969 1.98853 7.74329 1.81117 7.24518 1.81117C6.74707 1.81117 6.32066 1.98853 5.96595 2.34324C5.61124 2.69795 5.43388 3.12436 5.43388 3.62247C5.43388 4.12057 5.61124 4.54698 5.96595 4.90169C6.32066 5.2564 6.74707 5.43376 7.24518 5.43376Z" fill="white"/>
</svg>
