<svg width="18" height="10" viewBox="0 0 18 10" fill="none" xmlns="http://www.w3.org/2000/svg">
<path d="M4.8905 9.78125C3.53202 9.78125 2.37732 9.30579 1.42639 8.35486C0.475465 7.40393 0 6.24923 0 4.89075C0 3.53228 0.475465 2.37758 1.42639 1.42665C2.37732 0.475723 3.53202 0.000258446 4.8905 0.000258446H13.0413C14.3998 0.000258446 15.5545 0.475723 16.5054 1.42665C17.4564 2.37758 17.9318 3.53228 17.9318 4.89075C17.9318 6.24923 17.4564 7.40393 16.5054 8.35486C15.5545 9.30579 14.3998 9.78125 13.0413 9.78125H4.8905ZM4.8905 8.15108H13.0413C13.9379 8.15108 14.7054 7.83184 15.3439 7.19336C15.9824 6.55488 16.3017 5.78735 16.3017 4.89075C16.3017 3.99416 15.9824 3.22663 15.3439 2.58815C14.7054 1.94966 13.9379 1.63042 13.0413 1.63042H4.8905C3.9939 1.63042 3.22637 1.94966 2.58789 2.58815C1.94941 3.22663 1.63017 3.99416 1.63017 4.89075C1.63017 5.78735 1.94941 6.55488 2.58789 7.19336C3.22637 7.83184 3.9939 8.15108 4.8905 8.15108ZM13.0413 7.336C13.7206 7.336 14.2979 7.09827 14.7734 6.6228C15.2488 6.14734 15.4866 5.56999 15.4866 4.89075C15.4866 4.21152 15.2488 3.63417 14.7734 3.1587C14.2979 2.68324 13.7206 2.44551 13.0413 2.44551C12.3621 2.44551 11.7847 2.68324 11.3093 3.1587C10.8338 3.63417 10.5961 4.21152 10.5961 4.89075C10.5961 5.56999 10.8338 6.14734 11.3093 6.6228C11.7847 7.09827 12.3621 7.336 13.0413 7.336Z" fill="#CBD5E1"/>
</svg>
