<svg width="860" height="309" viewBox="0 0 860 309" fill="none" xmlns="http://www.w3.org/2000/svg">
<path d="M2.68799 196.214C35.2195 196.214 35.2195 38.5257 67.7512 38.5257C100.283 38.5257 100.283 74.364 132.814 74.364C165.346 74.364 165.346 167.543 197.877 167.543C230.409 167.543 230.409 60.0287 262.941 60.0287C295.473 60.0287 295.473 181.879 328.003 181.879C360.535 181.879 360.535 110.202 393.067 110.202C425.598 110.202 425.598 81.5316 458.13 81.5316C490.662 81.5316 490.662 217.717 523.194 217.717C555.724 217.717 555.724 267.89 588.256 267.89C620.788 267.89 620.788 2.6875 653.32 2.6875C685.851 2.6875 685.852 146.04 718.383 146.04C750.913 146.04 750.913 232.052 783.445 232.052C815.977 232.052 815.977 45.6934 848.509 45.6934V267.89H2.68799V196.214Z" fill="url(#paint0_linear_932_1577)"/>
<path d="M2.68799 196.214C35.2195 196.214 35.2195 38.5257 67.7512 38.5257C100.283 38.5257 100.283 74.364 132.814 74.364C165.346 74.364 165.346 167.543 197.877 167.543C230.409 167.543 230.409 60.0287 262.941 60.0287C295.473 60.0287 295.473 181.879 328.003 181.879C360.535 181.879 360.535 110.202 393.067 110.202C425.598 110.202 425.598 81.5316 458.13 81.5316C490.662 81.5316 490.662 217.717 523.194 217.717C555.724 217.717 555.724 267.89 588.256 267.89C620.788 267.89 620.788 2.6875 653.32 2.6875C685.851 2.6875 685.851 146.04 718.383 146.04C750.913 146.04 750.913 232.052 783.445 232.052C815.977 232.052 815.977 45.6934 848.509 45.6934" stroke="#273054" stroke-width="5.37586" stroke-linecap="round"/>
<path d="M393.067 119.161C398.015 119.161 402.027 115.15 402.027 110.202C402.027 105.254 398.015 101.242 393.067 101.242C388.118 101.242 384.107 105.254 384.107 110.202C384.107 115.15 388.118 119.161 393.067 119.161Z" fill="white" stroke="#273054" stroke-width="5.37586"/>
<path opacity="0.9" d="M461.439 36.7344H332.416C328.457 36.7344 325.248 39.9434 325.248 43.902V83.324C325.248 87.2826 328.457 90.4916 332.416 90.4916H461.439C465.398 90.4916 468.607 87.2826 468.607 83.324V43.902C468.607 39.9434 465.398 36.7344 461.439 36.7344Z" fill="#0D121C"/>
<path d="M351.289 74.0232L354.527 54.4746H355.779L352.541 74.0232H351.289ZM356.757 60.973C356.782 60.3367 356.596 59.8454 356.199 59.4992C355.807 59.1531 355.214 58.98 354.42 58.98C353.88 58.98 353.412 59.0563 353.015 59.2091C352.618 59.3567 352.3 59.5629 352.06 59.8276C351.826 60.0872 351.681 60.3876 351.625 60.7287C351.569 61.0087 351.587 61.253 351.679 61.4617C351.775 61.6705 351.925 61.8512 352.129 62.0039C352.338 62.1515 352.585 62.2813 352.87 62.3933C353.155 62.5002 353.458 62.5919 353.778 62.6682L355.122 63.0042C355.779 63.157 356.37 63.3606 356.894 63.6151C357.423 63.8697 357.866 64.1827 358.223 64.5544C358.584 64.926 358.839 65.3638 358.986 65.8678C359.134 66.3718 359.154 66.9496 359.047 67.6012C358.885 68.5583 358.505 69.3881 357.91 70.0906C357.314 70.788 356.533 71.3302 355.565 71.7171C354.598 72.0989 353.478 72.2898 352.205 72.2898C350.943 72.2898 349.876 72.0964 349.006 71.7095C348.135 71.3226 347.502 70.7498 347.104 69.9913C346.712 69.2277 346.595 68.2834 346.753 67.1583H349.953C349.897 67.6827 349.973 68.1205 350.182 68.4717C350.396 68.8179 350.714 69.0801 351.136 69.2583C351.559 69.4313 352.055 69.5179 352.625 69.5179C353.19 69.5179 353.692 69.4364 354.13 69.2735C354.573 69.1106 354.932 68.8841 355.206 68.5939C355.481 68.3037 355.649 67.9703 355.71 67.5936C355.771 67.2423 355.718 66.947 355.55 66.7078C355.382 66.4685 355.112 66.2649 354.741 66.0969C354.374 65.9238 353.918 65.7711 353.374 65.6387L351.74 65.2111C350.477 64.8904 349.523 64.3889 348.876 63.7068C348.23 63.0246 347.998 62.1057 348.181 60.9501C348.344 60.0032 348.739 59.176 349.365 58.4684C349.996 57.7556 350.79 57.2033 351.747 56.8113C352.709 56.4142 353.761 56.2157 354.901 56.2157C356.062 56.2157 357.042 56.4168 357.841 56.8189C358.64 57.216 359.223 57.7709 359.59 58.4836C359.956 59.1963 360.068 60.0261 359.926 60.973H356.757ZM369.839 56.4295L367.243 72.0684H363.936L366.013 59.568H365.922L361.966 61.813L362.455 58.8807L366.731 56.4295H369.839ZM376.794 72.2822C375.613 72.2822 374.592 72.0862 373.732 71.6942C372.871 71.3022 372.235 70.7702 371.823 70.0982C371.41 69.4212 371.275 68.6575 371.418 67.8074C371.525 67.1659 371.772 66.578 372.159 66.0434C372.551 65.5038 373.032 65.0533 373.602 64.6918C374.172 64.3304 374.778 64.0988 375.419 63.9969V63.8977C374.625 63.7297 374.024 63.3173 373.617 62.6606C373.21 61.9988 373.08 61.2377 373.228 60.3774C373.37 59.568 373.727 58.8502 374.297 58.224C374.867 57.5978 375.59 57.1066 376.465 56.7502C377.346 56.3939 378.311 56.2157 379.36 56.2157C380.418 56.2157 381.335 56.4015 382.109 56.7731C382.882 57.1448 383.455 57.6513 383.827 58.2927C384.203 58.9342 384.323 59.6621 384.186 60.4767C384.043 61.3472 383.651 62.0955 383.01 62.7217C382.373 63.3428 381.628 63.7348 380.772 63.8977V63.9969C381.388 64.1038 381.923 64.3431 382.376 64.7147C382.834 65.0813 383.17 65.542 383.384 66.0969C383.598 66.6467 383.649 67.2499 383.537 67.9067C383.394 68.7415 383.01 69.4899 382.384 70.1517C381.757 70.8135 380.961 71.3353 379.993 71.7171C379.031 72.0938 377.965 72.2822 376.794 72.2822ZM377.115 69.8539C377.649 69.8539 378.13 69.7571 378.558 69.5637C378.991 69.3652 379.347 69.0928 379.627 68.7466C379.907 68.3954 380.082 67.9983 380.154 67.5554C380.23 67.1023 380.184 66.7052 380.016 66.3641C379.848 66.0231 379.586 65.7558 379.23 65.5623C378.873 65.3689 378.446 65.2722 377.947 65.2722C377.433 65.2722 376.957 65.3765 376.519 65.5853C376.086 65.7889 375.725 66.0689 375.435 66.4252C375.15 66.7816 374.969 67.1914 374.892 67.6547C374.821 68.0874 374.867 68.4717 375.03 68.8077C375.193 69.1386 375.452 69.3957 375.809 69.579C376.17 69.7622 376.605 69.8539 377.115 69.8539ZM378.26 62.8668C378.713 62.8668 379.128 62.7751 379.505 62.5919C379.881 62.4035 380.192 62.149 380.436 61.8283C380.686 61.5025 380.846 61.1334 380.917 60.721C380.994 60.3087 380.963 59.9523 380.826 59.652C380.688 59.3516 380.467 59.12 380.161 58.9571C379.861 58.7891 379.492 58.7051 379.054 58.7051C378.596 58.7051 378.176 58.7967 377.794 58.98C377.417 59.1582 377.104 59.4051 376.855 59.7207C376.605 60.0363 376.445 60.4003 376.374 60.8127C376.308 61.225 376.343 61.5865 376.481 61.897C376.623 62.2024 376.847 62.4417 377.153 62.6148C377.463 62.7828 377.832 62.8668 378.26 62.8668ZM390.837 72.2822C389.763 72.2822 388.834 72.0836 388.05 71.6866C387.271 71.2844 386.693 70.7346 386.316 70.0371C385.939 69.3397 385.815 68.543 385.942 67.647H389.149C389.088 68.2477 389.261 68.739 389.668 69.1208C390.076 69.4975 390.608 69.6859 391.264 69.6859C391.784 69.6859 392.262 69.5713 392.7 69.3422C393.138 69.1081 393.504 68.7848 393.8 68.3725C394.1 67.9601 394.293 67.4816 394.38 66.9369C394.472 66.3871 394.436 65.9034 394.273 65.486C394.11 65.0685 393.845 64.7427 393.479 64.5086C393.112 64.2693 392.664 64.1497 392.135 64.1497C391.672 64.1497 391.211 64.2464 390.753 64.4398C390.295 64.6282 389.918 64.8827 389.623 65.2034L386.767 64.6766L388.882 56.4295H398.442L397.999 59.1327H391.173L390.111 63.0501H390.203C390.544 62.6632 391.012 62.3424 391.608 62.0879C392.204 61.8334 392.845 61.7061 393.532 61.7061C394.474 61.7061 395.276 61.9275 395.938 62.3704C396.605 62.8133 397.086 63.4217 397.381 64.1955C397.676 64.9693 397.74 65.8551 397.572 66.8529C397.404 67.9067 397.009 68.8408 396.388 69.6553C395.767 70.4699 394.978 71.1113 394.021 71.5796C393.064 72.048 392.003 72.2822 390.837 72.2822ZM402.444 69.9302L402.207 70.7702C402.029 71.4422 401.792 72.1116 401.497 72.7785C401.207 73.4454 400.916 74.0512 400.626 74.5959C400.336 75.1457 400.107 75.5759 399.939 75.8864H397.831C397.943 75.5963 398.109 75.1814 398.328 74.6417C398.552 74.1072 398.778 73.504 399.007 72.832C399.242 72.16 399.427 71.4778 399.565 70.7855L399.756 69.9302H402.444ZM405.242 69.3193L405.67 66.7154L413.909 56.4295H416.154L415.559 60.0338H414.223L409.03 66.5474L409.015 66.6696H418.285L417.85 69.3193H405.242ZM412.291 72.0684L412.886 68.5175L413.138 67.3798L414.948 56.4295H418.048L415.452 72.0684H412.291ZM419.595 72.0684L419.999 69.6859L426.414 64.5315C426.963 64.0733 427.429 63.6609 427.811 63.2944C428.198 62.9279 428.503 62.569 428.727 62.2177C428.956 61.8614 429.107 61.477 429.178 61.0646C429.254 60.6065 429.216 60.2119 429.063 59.881C428.916 59.5451 428.676 59.288 428.346 59.1098C428.02 58.9265 427.628 58.8349 427.17 58.8349C426.691 58.8349 426.256 58.9316 425.864 59.1251C425.472 59.3185 425.146 59.596 424.886 59.9574C424.627 60.3189 424.454 60.749 424.367 61.2479H421.229C421.402 60.2247 421.786 59.3363 422.382 58.5829C422.977 57.8295 423.726 57.2466 424.627 56.8342C425.528 56.4219 426.526 56.2157 427.62 56.2157C428.74 56.2157 429.682 56.4142 430.446 56.8113C431.214 57.2033 431.772 57.748 432.118 58.4454C432.464 59.1429 432.561 59.9421 432.408 60.8432C432.306 61.4388 432.09 62.0243 431.759 62.5995C431.428 63.1697 430.909 63.806 430.201 64.5086C429.494 65.206 428.524 66.0434 427.292 67.0209L424.642 69.2583L424.619 69.3652H431.194L430.743 72.0684H419.595ZM439.218 72.412C437.904 72.412 436.827 72.0913 435.987 71.4498C435.147 70.8033 434.575 69.8717 434.269 68.655C433.969 67.4383 433.961 65.9747 434.246 64.2642C434.537 62.5588 435.033 61.1054 435.735 59.904C436.443 58.7025 437.319 57.7887 438.362 57.1626C439.411 56.5313 440.59 56.2157 441.898 56.2157C443.201 56.2157 444.273 56.5313 445.113 57.1626C445.953 57.7938 446.528 58.7076 446.838 59.904C447.154 61.1003 447.169 62.5537 446.884 64.2642C446.599 65.9798 446.103 67.4459 445.395 68.6626C444.688 69.8742 443.809 70.8033 442.761 71.4498C441.712 72.0913 440.531 72.412 439.218 72.412ZM439.676 69.6706C440.577 69.6706 441.366 69.2201 442.043 68.319C442.72 67.4179 443.209 66.0663 443.509 64.2642C443.708 63.0831 443.751 62.0981 443.639 61.309C443.532 60.5148 443.29 59.9192 442.913 59.5221C442.537 59.1251 442.051 58.9265 441.455 58.9265C440.564 58.9265 439.775 59.3745 439.088 60.2705C438.406 61.1614 437.917 62.4926 437.622 64.2642C437.423 65.4656 437.38 66.4685 437.492 67.2728C437.604 68.0721 437.848 68.6728 438.225 69.075C438.602 69.4721 439.085 69.6706 439.676 69.6706Z" fill="white"/>
<path d="M14.7742 296.626H16.0586V302.681C16.0586 303.228 15.9502 303.697 15.7333 304.086C15.5193 304.475 15.2176 304.773 14.8284 304.978C14.4392 305.181 13.9833 305.283 13.4607 305.283C12.9797 305.283 12.5474 305.195 12.1638 305.02C11.7829 304.845 11.4813 304.591 11.2589 304.257C11.0392 303.921 10.9294 303.512 10.9294 303.031H12.2096C12.2096 303.267 12.2639 303.472 12.3723 303.644C12.4835 303.816 12.635 303.951 12.8268 304.048C13.0214 304.143 13.2438 304.19 13.494 304.19C13.7665 304.19 13.9972 304.133 14.1862 304.019C14.3781 303.902 14.524 303.732 14.6241 303.506C14.7242 303.281 14.7742 303.006 14.7742 302.681V296.626ZM19.698 305.308C19.2921 305.308 18.9252 305.233 18.5971 305.083C18.2691 304.93 18.0091 304.709 17.8173 304.42C17.6283 304.13 17.5338 303.776 17.5338 303.356C17.5338 302.995 17.6033 302.697 17.7423 302.464C17.8813 302.23 18.0689 302.045 18.3052 301.909C18.5415 301.773 18.8056 301.67 19.0975 301.601C19.3894 301.531 19.6869 301.478 19.9899 301.442C20.3736 301.398 20.6849 301.362 20.924 301.334C21.1631 301.303 21.3368 301.255 21.4453 301.188C21.5537 301.121 21.6079 301.013 21.6079 300.863V300.833C21.6079 300.469 21.505 300.187 21.2993 299.987C21.0964 299.787 20.7933 299.687 20.3902 299.687C19.9704 299.687 19.6396 299.78 19.3978 299.966C19.1587 300.149 18.9933 300.354 18.9015 300.579L17.7297 300.312C17.8687 299.923 18.0717 299.609 18.3386 299.37C18.6082 299.128 18.9182 298.953 19.2685 298.844C19.6188 298.733 19.9871 298.677 20.3736 298.677C20.6293 298.677 20.9004 298.708 21.1867 298.769C21.4758 298.828 21.7455 298.936 21.9957 299.094C22.2487 299.253 22.4558 299.479 22.617 299.774C22.7783 300.066 22.8589 300.446 22.8589 300.913V305.166H21.6412V304.29H21.5912C21.5106 304.452 21.3897 304.61 21.2284 304.766C21.0672 304.921 20.8601 305.051 20.6071 305.154C20.3541 305.256 20.0511 305.308 19.698 305.308ZM19.9691 304.307C20.3138 304.307 20.6085 304.239 20.8531 304.103C21.1005 303.966 21.2882 303.789 21.4161 303.569C21.5467 303.346 21.6121 303.109 21.6121 302.856V302.03C21.5676 302.075 21.4814 302.116 21.3535 302.155C21.2284 302.191 21.0852 302.223 20.924 302.251C20.7628 302.276 20.6057 302.3 20.4528 302.322C20.2999 302.342 20.172 302.358 20.0691 302.372C19.8273 302.403 19.6063 302.454 19.4061 302.526C19.2087 302.599 19.0503 302.703 18.9307 302.839C18.814 302.973 18.7556 303.15 18.7556 303.373C18.7556 303.681 18.8696 303.915 19.0975 304.073C19.3255 304.229 19.616 304.307 19.9691 304.307ZM25.7665 301.363V305.166H24.5196V298.761H25.7164V299.803H25.7957C25.943 299.464 26.1737 299.192 26.4879 298.986C26.8048 298.78 27.2037 298.677 27.6847 298.677C28.1212 298.677 28.5034 298.769 28.8315 298.953C29.1595 299.133 29.4139 299.403 29.5946 299.762C29.7753 300.12 29.8656 300.564 29.8656 301.092V305.166H28.6188V301.242C28.6188 300.778 28.4979 300.415 28.256 300.154C28.0141 299.89 27.6819 299.757 27.2593 299.757C26.9702 299.757 26.7131 299.82 26.4879 299.945C26.2655 300.07 26.089 300.254 25.9583 300.496C25.8304 300.735 25.7665 301.024 25.7665 301.363Z" fill="#9CA3AF"/>
<path d="M85.3186 305.166V296.626H90.6146V297.735H86.6072V300.337H90.2351V301.442H86.6072V305.166H85.3186ZM94.3895 305.295C93.7585 305.295 93.215 305.16 92.759 304.891C92.3059 304.618 91.9556 304.236 91.7082 303.744C91.4635 303.249 91.3412 302.67 91.3412 302.005C91.3412 301.349 91.4635 300.771 91.7082 300.27C91.9556 299.77 92.3003 299.379 92.7424 299.099C93.1872 298.818 93.707 298.677 94.302 298.677C94.6634 298.677 95.0136 298.737 95.3528 298.857C95.692 298.976 95.9964 299.164 96.2661 299.42C96.5357 299.675 96.7484 300.008 96.9041 300.416C97.0598 300.822 97.1376 301.316 97.1376 301.897V302.339H92.046V301.405H95.9158C95.9158 301.077 95.849 300.786 95.7156 300.533C95.5822 300.277 95.3945 300.076 95.1526 299.928C94.9136 299.781 94.6328 299.707 94.3103 299.707C93.96 299.707 93.6542 299.794 93.3929 299.966C93.1343 300.136 92.9342 300.358 92.7924 300.633C92.6534 300.906 92.5839 301.202 92.5839 301.521V302.251C92.5839 302.679 92.659 303.043 92.8091 303.344C92.962 303.644 93.1747 303.873 93.4471 304.032C93.7195 304.187 94.0379 304.265 94.402 304.265C94.6383 304.265 94.8538 304.232 95.0484 304.165C95.243 304.096 95.4112 303.993 95.553 303.857C95.6948 303.72 95.8032 303.552 95.8782 303.352L97.0584 303.565C96.9638 303.912 96.7943 304.217 96.5496 304.478C96.3078 304.737 96.0033 304.938 95.6364 305.083C95.2722 305.224 94.8566 305.295 94.3895 305.295ZM98.6211 305.166V296.626H99.8679V299.799H99.943C100.015 299.666 100.12 299.511 100.256 299.336C100.392 299.161 100.581 299.008 100.823 298.878C101.065 298.744 101.384 298.677 101.782 298.677C102.299 298.677 102.761 298.808 103.166 299.069C103.572 299.331 103.891 299.707 104.121 300.199C104.355 300.692 104.472 301.284 104.472 301.976C104.472 302.668 104.356 303.262 104.126 303.757C103.895 304.249 103.578 304.628 103.175 304.895C102.772 305.159 102.312 305.291 101.794 305.291C101.405 305.291 101.087 305.226 100.84 305.095C100.595 304.964 100.403 304.812 100.264 304.636C100.125 304.461 100.018 304.306 99.943 304.169H99.8387V305.166H98.6211ZM99.8429 301.963C99.8429 302.414 99.9082 302.809 100.039 303.148C100.17 303.487 100.359 303.752 100.606 303.944C100.853 304.133 101.156 304.228 101.515 304.228C101.888 304.228 102.199 304.129 102.449 303.932C102.699 303.732 102.888 303.46 103.016 303.119C103.147 302.777 103.212 302.392 103.212 301.963C103.212 301.541 103.148 301.161 103.02 300.825C102.895 300.489 102.706 300.223 102.453 300.029C102.203 299.834 101.89 299.737 101.515 299.737C101.154 299.737 100.848 299.83 100.598 300.016C100.35 300.202 100.163 300.462 100.035 300.796C99.9069 301.129 99.8429 301.519 99.8429 301.963Z" fill="#9CA3AF"/>
<path d="M159.358 296.626H160.921L163.64 303.264H163.74L166.459 296.626H168.023V305.166H166.797V298.986H166.718L164.199 305.154H163.182L160.663 298.982H160.584V305.166H159.358V296.626ZM171.66 305.308C171.254 305.308 170.888 305.233 170.559 305.083C170.231 304.93 169.972 304.709 169.78 304.42C169.591 304.13 169.496 303.776 169.496 303.356C169.496 302.995 169.566 302.697 169.705 302.464C169.844 302.23 170.031 302.045 170.268 301.909C170.504 301.773 170.768 301.67 171.06 301.601C171.352 301.531 171.649 301.478 171.952 301.442C172.336 301.398 172.647 301.362 172.886 301.334C173.125 301.303 173.299 301.255 173.408 301.188C173.516 301.121 173.57 301.013 173.57 300.863V300.833C173.57 300.469 173.467 300.187 173.262 299.987C173.059 299.787 172.756 299.687 172.353 299.687C171.933 299.687 171.602 299.78 171.36 299.966C171.121 300.149 170.956 300.354 170.864 300.579L169.692 300.312C169.831 299.923 170.034 299.609 170.301 299.37C170.571 299.128 170.881 298.953 171.231 298.844C171.581 298.733 171.95 298.677 172.336 298.677C172.592 298.677 172.863 298.708 173.149 298.769C173.438 298.828 173.708 298.936 173.958 299.094C174.211 299.253 174.418 299.479 174.579 299.774C174.741 300.066 174.821 300.446 174.821 300.913V305.166H173.604V304.29H173.554C173.473 304.452 173.352 304.61 173.191 304.766C173.03 304.921 172.822 305.051 172.569 305.154C172.316 305.256 172.013 305.308 171.66 305.308ZM171.931 304.307C172.276 304.307 172.571 304.239 172.815 304.103C173.063 303.966 173.251 303.789 173.378 303.569C173.509 303.346 173.574 303.109 173.574 302.856V302.03C173.53 302.075 173.444 302.116 173.316 302.155C173.191 302.191 173.048 302.223 172.886 302.251C172.725 302.276 172.568 302.3 172.415 302.322C172.262 302.342 172.134 302.358 172.032 302.372C171.79 302.403 171.569 302.454 171.368 302.526C171.171 302.599 171.013 302.703 170.893 302.839C170.776 302.973 170.718 303.15 170.718 303.373C170.718 303.681 170.832 303.915 171.06 304.073C171.288 304.229 171.578 304.307 171.931 304.307ZM176.482 305.166V298.761H177.687V299.778H177.754C177.871 299.434 178.076 299.163 178.371 298.965C178.668 298.765 179.005 298.665 179.38 298.665C179.458 298.665 179.55 298.668 179.655 298.673C179.764 298.679 179.849 298.686 179.91 298.694V299.887C179.86 299.873 179.771 299.858 179.643 299.841C179.515 299.821 179.387 299.812 179.259 299.812C178.965 299.812 178.702 299.874 178.471 299.999C178.243 300.122 178.062 300.293 177.929 300.512C177.796 300.729 177.729 300.977 177.729 301.255V305.166H176.482Z" fill="#9CA3AF"/>
<path d="M235.379 305.166H234.012L237.085 296.626H238.574L241.647 305.166H240.279L237.865 298.177H237.798L235.379 305.166ZM235.609 301.822H240.046V302.906H235.609V301.822ZM242.78 307.568V298.761H243.998V299.799H244.102C244.174 299.666 244.279 299.511 244.415 299.336C244.551 299.161 244.74 299.008 244.982 298.878C245.224 298.744 245.544 298.677 245.941 298.677C246.458 298.677 246.92 298.808 247.326 299.069C247.731 299.331 248.05 299.707 248.28 300.199C248.514 300.692 248.631 301.284 248.631 301.976C248.631 302.668 248.515 303.262 248.285 303.757C248.054 304.249 247.737 304.628 247.334 304.895C246.931 305.159 246.471 305.291 245.954 305.291C245.564 305.291 245.246 305.226 244.999 305.095C244.754 304.964 244.562 304.812 244.423 304.636C244.284 304.461 244.177 304.306 244.102 304.169H244.027V307.568H242.78ZM244.002 301.963C244.002 302.414 244.067 302.809 244.198 303.148C244.329 303.487 244.518 303.752 244.765 303.944C245.013 304.133 245.316 304.228 245.674 304.228C246.047 304.228 246.358 304.129 246.608 303.932C246.859 303.732 247.048 303.46 247.175 303.119C247.306 302.777 247.371 302.392 247.371 301.963C247.371 301.541 247.307 301.161 247.18 300.825C247.055 300.489 246.865 300.223 246.612 300.029C246.362 299.834 246.05 299.737 245.674 299.737C245.313 299.737 245.007 299.83 244.757 300.016C244.509 300.202 244.322 300.462 244.194 300.796C244.066 301.129 244.002 301.519 244.002 301.963ZM250.028 305.166V298.761H251.233V299.778H251.3C251.416 299.434 251.622 299.163 251.917 298.965C252.214 298.765 252.551 298.665 252.926 298.665C253.004 298.665 253.096 298.668 253.201 298.673C253.31 298.679 253.394 298.686 253.456 298.694V299.887C253.405 299.873 253.317 299.858 253.189 299.841C253.061 299.821 252.933 299.812 252.805 299.812C252.51 299.812 252.248 299.874 252.017 299.999C251.789 300.122 251.608 300.293 251.475 300.512C251.341 300.729 251.275 300.977 251.275 301.255V305.166H250.028Z" fill="#9CA3AF"/>
<path d="M308.179 296.626H309.743L312.462 303.264H312.562L315.281 296.626H316.844V305.166H315.618V298.986H315.539L313.02 305.154H312.003L309.484 298.982H309.405V305.166H308.179V296.626ZM320.482 305.308C320.076 305.308 319.709 305.233 319.381 305.083C319.053 304.93 318.793 304.709 318.601 304.42C318.412 304.13 318.317 303.776 318.317 303.356C318.317 302.995 318.387 302.697 318.526 302.464C318.665 302.23 318.853 302.045 319.089 301.909C319.325 301.773 319.589 301.67 319.881 301.601C320.173 301.531 320.471 301.478 320.774 301.442C321.157 301.398 321.469 301.362 321.708 301.334C321.947 301.303 322.12 301.255 322.229 301.188C322.337 301.121 322.392 301.013 322.392 300.863V300.833C322.392 300.469 322.289 300.187 322.083 299.987C321.88 299.787 321.577 299.687 321.174 299.687C320.754 299.687 320.423 299.78 320.181 299.966C319.942 300.149 319.777 300.354 319.685 300.579L318.513 300.312C318.652 299.923 318.855 299.609 319.122 299.37C319.392 299.128 319.702 298.953 320.052 298.844C320.402 298.733 320.771 298.677 321.157 298.677C321.413 298.677 321.684 298.708 321.97 298.769C322.26 298.828 322.529 298.936 322.779 299.094C323.032 299.253 323.239 299.479 323.401 299.774C323.562 300.066 323.643 300.446 323.643 300.913V305.166H322.425V304.29H322.375C322.294 304.452 322.173 304.61 322.012 304.766C321.851 304.921 321.644 305.051 321.391 305.154C321.138 305.256 320.835 305.308 320.482 305.308ZM320.753 304.307C321.097 304.307 321.392 304.239 321.637 304.103C321.884 303.966 322.072 303.789 322.2 303.569C322.33 303.346 322.396 303.109 322.396 302.856V302.03C322.351 302.075 322.265 302.116 322.137 302.155C322.012 302.191 321.869 302.223 321.708 302.251C321.546 302.276 321.389 302.3 321.236 302.322C321.084 302.342 320.956 302.358 320.853 302.372C320.611 302.403 320.39 302.454 320.19 302.526C319.992 302.599 319.834 302.703 319.714 302.839C319.598 302.973 319.539 303.15 319.539 303.373C319.539 303.681 319.653 303.915 319.881 304.073C320.109 304.229 320.4 304.307 320.753 304.307ZM325.862 307.568C325.676 307.568 325.506 307.553 325.353 307.522C325.2 307.494 325.086 307.464 325.011 307.43L325.312 306.409C325.54 306.47 325.743 306.496 325.92 306.488C326.098 306.48 326.255 306.413 326.392 306.288C326.531 306.163 326.653 305.958 326.759 305.675L326.913 305.249L324.569 298.761H325.904L327.526 303.732H327.593L329.215 298.761H330.553L327.914 306.021C327.791 306.354 327.636 306.637 327.447 306.867C327.258 307.101 327.032 307.276 326.771 307.393C326.51 307.51 326.207 307.568 325.862 307.568Z" fill="#9CA3AF"/>
<path d="M388.834 296.626H390.118V302.681C390.118 303.228 390.01 303.697 389.793 304.086C389.579 304.475 389.277 304.773 388.888 304.978C388.499 305.181 388.043 305.283 387.52 305.283C387.039 305.283 386.607 305.195 386.223 305.02C385.842 304.845 385.541 304.591 385.318 304.257C385.099 303.921 384.989 303.512 384.989 303.031H386.269C386.269 303.267 386.323 303.472 386.432 303.644C386.543 303.816 386.695 303.951 386.886 304.048C387.081 304.143 387.303 304.19 387.554 304.19C387.826 304.19 388.057 304.133 388.246 304.019C388.438 303.902 388.584 303.732 388.684 303.506C388.784 303.281 388.834 303.006 388.834 302.681V296.626ZM395.951 302.51V298.761H397.202V305.166H395.976V304.057H395.909C395.762 304.399 395.526 304.684 395.2 304.912C394.878 305.137 394.476 305.249 393.995 305.249C393.584 305.249 393.22 305.159 392.903 304.978C392.589 304.795 392.341 304.524 392.16 304.165C391.983 303.807 391.894 303.363 391.894 302.835V298.761H393.14V302.685C393.14 303.121 393.261 303.469 393.503 303.727C393.745 303.986 394.059 304.115 394.446 304.115C394.679 304.115 394.911 304.057 395.142 303.94C395.376 303.823 395.569 303.647 395.722 303.41C395.877 303.174 395.954 302.874 395.951 302.51ZM400.124 301.363V305.166H398.877V298.761H400.074V299.803H400.153C400.301 299.464 400.531 299.192 400.846 298.986C401.163 298.78 401.561 298.677 402.042 298.677C402.479 298.677 402.861 298.769 403.189 298.953C403.517 299.133 403.772 299.403 403.952 299.762C404.133 300.12 404.223 300.564 404.223 301.092V305.166H402.977V301.242C402.977 300.778 402.856 300.415 402.614 300.154C402.372 299.89 402.04 299.757 401.617 299.757C401.328 299.757 401.071 299.82 400.846 299.945C400.623 300.07 400.447 300.254 400.316 300.496C400.188 300.735 400.124 301.024 400.124 301.363Z" fill="#9CA3AF"/>
<path d="M463.098 296.626H464.382V302.681C464.382 303.228 464.274 303.697 464.057 304.086C463.843 304.475 463.541 304.773 463.152 304.978C462.763 305.181 462.307 305.283 461.784 305.283C461.303 305.283 460.871 305.195 460.488 305.02C460.107 304.845 459.805 304.591 459.583 304.257C459.363 303.921 459.253 303.512 459.253 303.031H460.533C460.533 303.267 460.588 303.472 460.696 303.644C460.807 303.816 460.959 303.951 461.151 304.048C461.345 304.143 461.568 304.19 461.818 304.19C462.09 304.19 462.321 304.133 462.51 304.019C462.702 303.902 462.848 303.732 462.948 303.506C463.048 303.281 463.098 303.006 463.098 302.681V296.626ZM470.215 302.51V298.761H471.466V305.166H470.24V304.057H470.173C470.026 304.399 469.79 304.684 469.465 304.912C469.142 305.137 468.74 305.249 468.259 305.249C467.848 305.249 467.484 305.159 467.167 304.978C466.853 304.795 466.605 304.524 466.425 304.165C466.247 303.807 466.158 303.363 466.158 302.835V298.761H467.405V302.685C467.405 303.121 467.526 303.469 467.767 303.727C468.009 303.986 468.323 304.115 468.71 304.115C468.943 304.115 469.175 304.057 469.406 303.94C469.64 303.823 469.833 303.647 469.986 303.41C470.142 303.174 470.218 302.874 470.215 302.51ZM474.388 296.626V305.166H473.142V296.626H474.388Z" fill="#9CA3AF"/>
<path d="M530.663 305.166H529.295L532.369 296.626H533.857L536.931 305.166H535.563L533.148 298.177H533.082L530.663 305.166ZM530.892 301.822H535.329V302.906H530.892V301.822ZM542.121 302.51V298.761H543.372V305.166H542.146V304.057H542.08C541.932 304.399 541.696 304.684 541.371 304.912C541.048 305.137 540.647 305.249 540.166 305.249C539.754 305.249 539.39 305.159 539.073 304.978C538.759 304.795 538.511 304.524 538.331 304.165C538.153 303.807 538.064 303.363 538.064 302.835V298.761H539.311V302.685C539.311 303.121 539.432 303.469 539.674 303.727C539.915 303.986 540.23 304.115 540.616 304.115C540.849 304.115 541.082 304.057 541.312 303.94C541.546 303.823 541.739 303.647 541.892 303.41C542.048 303.174 542.124 302.874 542.121 302.51ZM547.733 307.701C547.224 307.701 546.787 307.635 546.42 307.501C546.055 307.368 545.758 307.191 545.527 306.972C545.296 306.752 545.124 306.512 545.01 306.25L546.082 305.808C546.157 305.931 546.257 306.06 546.382 306.196C546.51 306.335 546.682 306.453 546.899 306.55C547.119 306.648 547.401 306.696 547.746 306.696C548.218 306.696 548.609 306.581 548.917 306.35C549.226 306.122 549.38 305.758 549.38 305.258V303.998H549.301C549.226 304.135 549.118 304.286 548.976 304.453C548.837 304.62 548.645 304.764 548.4 304.887C548.156 305.009 547.837 305.07 547.445 305.07C546.939 305.07 546.484 304.952 546.078 304.716C545.675 304.477 545.355 304.125 545.119 303.661C544.885 303.194 544.768 302.62 544.768 301.938C544.768 301.257 544.884 300.673 545.114 300.187C545.348 299.7 545.668 299.328 546.074 299.069C546.479 298.808 546.939 298.677 547.454 298.677C547.851 298.677 548.172 298.744 548.417 298.878C548.662 299.008 548.852 299.161 548.988 299.336C549.127 299.511 549.234 299.666 549.309 299.799H549.401V298.761H550.623V305.308C550.623 305.858 550.495 306.31 550.239 306.663C549.984 307.016 549.638 307.277 549.201 307.447C548.767 307.617 548.278 307.701 547.733 307.701ZM547.721 304.036C548.079 304.036 548.382 303.953 548.63 303.786C548.88 303.616 549.069 303.374 549.197 303.06C549.328 302.743 549.393 302.364 549.393 301.922C549.393 301.491 549.329 301.111 549.201 300.783C549.073 300.455 548.886 300.199 548.638 300.016C548.391 299.83 548.085 299.737 547.721 299.737C547.345 299.737 547.033 299.834 546.782 300.029C546.532 300.22 546.343 300.482 546.215 300.812C546.09 301.143 546.028 301.513 546.028 301.922C546.028 302.342 546.092 302.71 546.219 303.027C546.347 303.344 546.536 303.591 546.787 303.769C547.04 303.947 547.351 304.036 547.721 304.036Z" fill="#9CA3AF"/>
<path d="M610.655 298.869C610.61 298.474 610.427 298.169 610.104 297.952C609.782 297.732 609.376 297.622 608.887 297.622C608.536 297.622 608.233 297.678 607.978 297.789C607.722 297.898 607.523 298.048 607.381 298.24C607.242 298.429 607.173 298.644 607.173 298.886C607.173 299.089 607.22 299.264 607.315 299.411C607.412 299.559 607.538 299.682 607.694 299.782C607.853 299.88 608.022 299.962 608.203 300.029C608.384 300.092 608.557 300.145 608.724 300.187L609.558 300.404C609.831 300.471 610.11 300.561 610.396 300.675C610.683 300.789 610.948 300.939 611.193 301.125C611.437 301.312 611.635 301.542 611.785 301.817C611.938 302.093 612.014 302.422 612.014 302.806C612.014 303.289 611.889 303.719 611.639 304.094C611.392 304.47 611.031 304.766 610.559 304.983C610.089 305.199 609.521 305.308 608.853 305.308C608.214 305.308 607.661 305.206 607.194 305.003C606.727 304.8 606.361 304.513 606.097 304.14C605.833 303.765 605.687 303.32 605.659 302.806H606.952C606.977 303.114 607.077 303.372 607.252 303.577C607.43 303.78 607.657 303.932 607.932 304.032C608.21 304.129 608.514 304.178 608.845 304.178C609.209 304.178 609.533 304.121 609.817 304.007C610.103 303.89 610.328 303.729 610.492 303.523C610.656 303.315 610.738 303.071 610.738 302.793C610.738 302.54 610.666 302.333 610.521 302.172C610.38 302.011 610.186 301.877 609.942 301.772C609.7 301.666 609.426 301.573 609.12 301.492L608.111 301.217C607.427 301.031 606.885 300.757 606.485 300.395C606.087 300.034 605.888 299.556 605.888 298.961C605.888 298.469 606.022 298.039 606.289 297.672C606.556 297.305 606.917 297.021 607.373 296.818C607.829 296.612 608.343 296.509 608.916 296.509C609.494 296.509 610.004 296.61 610.446 296.813C610.891 297.016 611.241 297.296 611.497 297.652C611.753 298.005 611.886 298.411 611.897 298.869H610.655ZM616.215 305.295C615.583 305.295 615.04 305.16 614.584 304.891C614.131 304.618 613.781 304.236 613.533 303.744C613.289 303.249 613.166 302.67 613.166 302.005C613.166 301.349 613.289 300.771 613.533 300.27C613.781 299.77 614.125 299.379 614.567 299.099C615.012 298.818 615.532 298.677 616.127 298.677C616.488 298.677 616.839 298.737 617.178 298.857C617.517 298.976 617.821 299.164 618.091 299.42C618.361 299.675 618.573 300.008 618.729 300.416C618.885 300.822 618.963 301.316 618.963 301.897V302.339H613.871V301.405H617.741C617.741 301.077 617.674 300.786 617.541 300.533C617.407 300.277 617.219 300.076 616.978 299.928C616.739 299.781 616.458 299.707 616.135 299.707C615.785 299.707 615.479 299.794 615.218 299.966C614.959 300.136 614.759 300.358 614.617 300.633C614.478 300.906 614.409 301.202 614.409 301.521V302.251C614.409 302.679 614.484 303.043 614.634 303.344C614.787 303.644 615 303.873 615.272 304.032C615.545 304.187 615.863 304.265 616.227 304.265C616.463 304.265 616.679 304.232 616.873 304.165C617.068 304.096 617.236 303.993 617.378 303.857C617.52 303.72 617.628 303.552 617.703 303.352L618.883 303.565C618.789 303.912 618.619 304.217 618.375 304.478C618.133 304.737 617.828 304.938 617.461 305.083C617.097 305.224 616.682 305.295 616.215 305.295ZM620.346 307.568V298.761H621.564V299.799H621.668C621.74 299.666 621.844 299.511 621.981 299.336C622.117 299.161 622.306 299.008 622.548 298.878C622.79 298.744 623.109 298.677 623.507 298.677C624.024 298.677 624.485 298.808 624.891 299.069C625.297 299.331 625.616 299.707 625.846 300.199C626.08 300.692 626.197 301.284 626.197 301.976C626.197 302.668 626.081 303.262 625.85 303.757C625.62 304.249 625.303 304.628 624.9 304.895C624.497 305.159 624.036 305.291 623.519 305.291C623.13 305.291 622.812 305.226 622.564 305.095C622.32 304.964 622.128 304.812 621.989 304.636C621.85 304.461 621.743 304.306 621.668 304.169H621.593V307.568H620.346ZM621.568 301.963C621.568 302.414 621.633 302.809 621.764 303.148C621.894 303.487 622.084 303.752 622.331 303.944C622.578 304.133 622.881 304.228 623.24 304.228C623.613 304.228 623.924 304.129 624.174 303.932C624.424 303.732 624.613 303.46 624.741 303.119C624.872 302.777 624.937 302.392 624.937 301.963C624.937 301.541 624.873 301.161 624.745 300.825C624.62 300.489 624.431 300.223 624.178 300.029C623.928 299.834 623.615 299.737 623.24 299.737C622.879 299.737 622.573 299.83 622.323 300.016C622.075 300.202 621.888 300.462 621.76 300.796C621.632 301.129 621.568 301.519 621.568 301.963Z" fill="#9CA3AF"/>
<path d="M688.54 300.896C688.54 301.808 688.373 302.592 688.039 303.248C687.706 303.901 687.249 304.404 686.668 304.757C686.089 305.108 685.432 305.283 684.695 305.283C683.956 305.283 683.295 305.108 682.714 304.757C682.136 304.404 681.68 303.9 681.347 303.244C681.013 302.588 680.846 301.805 680.846 300.896C680.846 299.984 681.013 299.201 681.347 298.548C681.68 297.892 682.136 297.389 682.714 297.039C683.295 296.686 683.956 296.509 684.695 296.509C685.432 296.509 686.089 296.686 686.668 297.039C687.249 297.389 687.706 297.892 688.039 298.548C688.373 299.201 688.54 299.984 688.54 300.896ZM687.264 300.896C687.264 300.201 687.151 299.616 686.926 299.14C686.704 298.662 686.398 298.301 686.009 298.056C685.622 297.809 685.184 297.685 684.695 297.685C684.203 297.685 683.764 297.809 683.377 298.056C682.991 298.301 682.685 298.662 682.46 299.14C682.238 299.616 682.126 300.201 682.126 300.896C682.126 301.591 682.238 302.177 682.46 302.656C682.685 303.131 682.991 303.492 683.377 303.74C683.764 303.985 684.203 304.107 684.695 304.107C685.184 304.107 685.622 303.985 686.009 303.74C686.398 303.492 686.704 303.131 686.926 302.656C687.151 302.177 687.264 301.591 687.264 300.896ZM692.744 305.295C692.124 305.295 691.591 305.155 691.143 304.874C690.698 304.591 690.356 304.2 690.117 303.702C689.878 303.205 689.759 302.635 689.759 301.993C689.759 301.342 689.881 300.768 690.126 300.27C690.37 299.77 690.715 299.379 691.16 299.099C691.605 298.818 692.129 298.677 692.732 298.677C693.218 298.677 693.652 298.768 694.033 298.948C694.414 299.126 694.721 299.377 694.954 299.699C695.191 300.022 695.331 300.398 695.376 300.829H694.162C694.095 300.529 693.943 300.27 693.703 300.054C693.467 299.837 693.15 299.728 692.753 299.728C692.405 299.728 692.101 299.82 691.839 300.003C691.581 300.184 691.379 300.443 691.235 300.779C691.09 301.113 691.018 301.507 691.018 301.963C691.018 302.43 691.089 302.834 691.231 303.173C691.372 303.512 691.573 303.775 691.831 303.961C692.092 304.147 692.4 304.24 692.753 304.24C692.989 304.24 693.203 304.197 693.395 304.111C693.589 304.022 693.752 303.896 693.883 303.732C694.016 303.567 694.109 303.37 694.162 303.139H695.376C695.331 303.554 695.196 303.923 694.971 304.249C694.746 304.574 694.444 304.83 694.066 305.016C693.691 305.202 693.25 305.295 692.744 305.295ZM699.699 298.761V299.762H696.2V298.761H699.699ZM697.139 297.226H698.385V303.285C698.385 303.527 698.422 303.709 698.494 303.832C698.566 303.951 698.659 304.033 698.773 304.078C698.89 304.119 699.016 304.14 699.153 304.14C699.253 304.14 699.34 304.133 699.415 304.119C699.49 304.105 699.549 304.094 699.591 304.086L699.816 305.116C699.743 305.144 699.641 305.172 699.507 305.199C699.374 305.23 699.207 305.247 699.007 305.249C698.679 305.255 698.373 305.197 698.089 305.074C697.806 304.952 697.576 304.763 697.401 304.507C697.226 304.251 697.139 303.93 697.139 303.544V297.226Z" fill="#9CA3AF"/>
<path d="M761.173 296.626V305.166H759.989L755.648 298.903H755.569V305.166H754.28V296.626H755.473L759.818 302.898H759.897V296.626H761.173ZM765.651 305.295C765.05 305.295 764.526 305.158 764.079 304.882C763.631 304.607 763.284 304.222 763.036 303.727C762.789 303.233 762.665 302.654 762.665 301.993C762.665 301.328 762.789 300.747 763.036 300.25C763.284 299.752 763.631 299.365 764.079 299.09C764.526 298.815 765.05 298.677 765.651 298.677C766.251 298.677 766.775 298.815 767.223 299.09C767.67 299.365 768.018 299.752 768.265 300.25C768.513 300.747 768.636 301.328 768.636 301.993C768.636 302.654 768.513 303.233 768.265 303.727C768.018 304.222 767.67 304.607 767.223 304.882C766.775 305.158 766.251 305.295 765.651 305.295ZM765.655 304.249C766.044 304.249 766.367 304.146 766.622 303.94C766.878 303.734 767.067 303.46 767.189 303.119C767.315 302.777 767.377 302.4 767.377 301.988C767.377 301.58 767.315 301.204 767.189 300.863C767.067 300.518 766.878 300.241 766.622 300.033C766.367 299.824 766.044 299.72 765.655 299.72C765.263 299.72 764.938 299.824 764.679 300.033C764.423 300.241 764.233 300.518 764.108 300.863C763.985 301.204 763.924 301.58 763.924 301.988C763.924 302.4 763.985 302.777 764.108 303.119C764.233 303.46 764.423 303.734 764.679 303.94C764.938 304.146 765.263 304.249 765.655 304.249ZM775.29 298.761L772.967 305.166H771.633L769.306 298.761H770.644L772.267 303.69H772.333L773.951 298.761H775.29Z" fill="#9CA3AF"/>
<path d="M832.932 305.166H830.167V296.626H833.02C833.856 296.626 834.575 296.797 835.175 297.139C835.776 297.478 836.236 297.966 836.556 298.602C836.878 299.236 837.04 299.997 837.04 300.883C837.04 301.773 836.877 302.537 836.552 303.177C836.229 303.816 835.762 304.308 835.15 304.653C834.539 304.995 833.799 305.166 832.932 305.166ZM831.456 304.04H832.861C833.512 304.04 834.052 303.918 834.483 303.673C834.914 303.426 835.237 303.068 835.451 302.601C835.665 302.132 835.772 301.559 835.772 300.883C835.772 300.213 835.665 299.645 835.451 299.178C835.239 298.711 834.924 298.356 834.504 298.114C834.084 297.873 833.563 297.752 832.94 297.752H831.456V304.04ZM841.302 305.295C840.671 305.295 840.128 305.16 839.672 304.891C839.219 304.618 838.868 304.236 838.621 303.744C838.376 303.249 838.254 302.67 838.254 302.005C838.254 301.349 838.376 300.771 838.621 300.27C838.868 299.77 839.213 299.379 839.655 299.099C840.1 298.818 840.62 298.677 841.215 298.677C841.576 298.677 841.926 298.737 842.266 298.857C842.605 298.976 842.909 299.164 843.179 299.42C843.449 299.675 843.661 300.008 843.817 300.416C843.973 300.822 844.05 301.316 844.05 301.897V302.339H838.959V301.405H842.829C842.829 301.077 842.762 300.786 842.628 300.533C842.495 300.277 842.307 300.076 842.065 299.928C841.826 299.781 841.546 299.707 841.223 299.707C840.873 299.707 840.567 299.794 840.306 299.966C840.047 300.136 839.847 300.358 839.705 300.633C839.566 300.906 839.497 301.202 839.497 301.521V302.251C839.497 302.679 839.572 303.043 839.722 303.344C839.875 303.644 840.087 303.873 840.36 304.032C840.632 304.187 840.951 304.265 841.315 304.265C841.551 304.265 841.767 304.232 841.961 304.165C842.156 304.096 842.324 303.993 842.466 303.857C842.608 303.72 842.716 303.552 842.791 303.352L843.971 303.565C843.877 303.912 843.707 304.217 843.462 304.478C843.221 304.737 842.916 304.938 842.549 305.083C842.185 305.224 841.769 305.295 841.302 305.295ZM848.132 305.295C847.512 305.295 846.978 305.155 846.531 304.874C846.086 304.591 845.744 304.2 845.505 303.702C845.266 303.205 845.146 302.635 845.146 301.993C845.146 301.342 845.268 300.768 845.513 300.27C845.758 299.77 846.102 299.379 846.547 299.099C846.992 298.818 847.516 298.677 848.119 298.677C848.606 298.677 849.04 298.768 849.42 298.948C849.801 299.126 850.108 299.377 850.342 299.699C850.578 300.022 850.719 300.398 850.763 300.829H849.55C849.483 300.529 849.33 300.27 849.091 300.054C848.855 299.837 848.538 299.728 848.14 299.728C847.793 299.728 847.488 299.82 847.227 300.003C846.968 300.184 846.767 300.443 846.622 300.779C846.478 301.113 846.405 301.507 846.405 301.963C846.405 302.43 846.476 302.834 846.618 303.173C846.76 303.512 846.96 303.775 847.219 303.961C847.48 304.147 847.787 304.24 848.14 304.24C848.376 304.24 848.591 304.197 848.782 304.111C848.977 304.022 849.14 303.896 849.27 303.732C849.404 303.567 849.497 303.37 849.55 303.139H850.763C850.719 303.554 850.584 303.923 850.359 304.249C850.133 304.574 849.832 304.83 849.454 305.016C849.078 305.202 848.638 305.295 848.132 305.295Z" fill="#9CA3AF"/>
<defs>
<linearGradient id="paint0_linear_932_1577" x1="2.68799" y1="2.6875" x2="2.68799" y2="267.89" gradientUnits="userSpaceOnUse">
<stop stop-color="#273054" stop-opacity="0.2"/>
<stop offset="1" stop-color="#273054" stop-opacity="0"/>
</linearGradient>
</defs>
</svg>
