<svg width="28" height="28" viewBox="0 0 28 28" fill="none" xmlns="http://www.w3.org/2000/svg">
<rect width="27.4" height="27.4" rx="13.7" fill="#FFEDD5"/>
<path d="M10.4382 14.6755C10.71 14.6755 10.9411 14.5803 11.1313 14.39C11.3216 14.1998 11.4167 13.9687 11.4167 13.6969C11.4167 13.4251 11.3216 13.194 11.1313 13.0037C10.9411 12.8135 10.71 12.7183 10.4382 12.7183C10.1663 12.7183 9.9353 12.8135 9.74502 13.0037C9.55474 13.194 9.4596 13.4251 9.4596 13.6969C9.4596 13.9687 9.55474 14.1998 9.74502 14.39C9.9353 14.5803 10.1663 14.6755 10.4382 14.6755ZM13.7001 14.6755C13.9719 14.6755 14.203 14.5803 14.3932 14.39C14.5835 14.1998 14.6787 13.9687 14.6787 13.6969C14.6787 13.4251 14.5835 13.194 14.3932 13.0037C14.203 12.8135 13.9719 12.7183 13.7001 12.7183C13.4283 12.7183 13.1972 12.8135 13.0069 13.0037C12.8166 13.194 12.7215 13.4251 12.7215 13.6969C12.7215 13.9687 12.8166 14.1998 13.0069 14.39C13.1972 14.5803 13.4283 14.6755 13.7001 14.6755ZM16.962 14.6755C17.2338 14.6755 17.4649 14.5803 17.6551 14.39C17.8454 14.1998 17.9406 13.9687 17.9406 13.6969C17.9406 13.4251 17.8454 13.194 17.6551 13.0037C17.4649 12.8135 17.2338 12.7183 16.962 12.7183C16.6902 12.7183 16.4591 12.8135 16.2688 13.0037C16.0786 13.194 15.9834 13.4251 15.9834 13.6969C15.9834 13.9687 16.0786 14.1998 16.2688 14.39C16.4591 14.5803 16.6902 14.6755 16.962 14.6755ZM13.7001 20.2207C12.7976 20.2207 11.9495 20.0495 11.1558 19.707C10.3621 19.3645 9.67163 18.8996 9.08448 18.3125C8.49734 17.7253 8.03252 17.0349 7.69002 16.2412C7.34752 15.4474 7.17627 14.5994 7.17627 13.6969C7.17627 12.7944 7.34752 11.9463 7.69002 11.1526C8.03252 10.3589 8.49734 9.66844 9.08448 9.0813C9.67163 8.49415 10.3621 8.02933 11.1558 7.68683C11.9495 7.34433 12.7976 7.17308 13.7001 7.17308C14.6025 7.17308 15.4506 7.34433 16.2444 7.68683C17.0381 8.02933 17.7285 8.49415 18.3157 9.0813C18.9028 9.66844 19.3676 10.3589 19.7101 11.1526C20.0526 11.9463 20.2239 12.7944 20.2239 13.6969C20.2239 14.5994 20.0526 15.4474 19.7101 16.2412C19.3676 17.0349 18.9028 17.7253 18.3157 18.3125C17.7285 18.8996 17.0381 19.3645 16.2444 19.707C15.4506 20.0495 14.6025 20.2207 13.7001 20.2207ZM13.7001 18.9159C15.1571 18.9159 16.3912 18.4103 17.4023 17.3992C18.4135 16.388 18.9191 15.1539 18.9191 13.6969C18.9191 12.2399 18.4135 11.0058 17.4023 9.99463C16.3912 8.98344 15.1571 8.47785 13.7001 8.47785C12.2431 8.47785 11.009 8.98344 9.99782 9.99463C8.98663 11.0058 8.48103 12.2399 8.48103 13.6969C8.48103 15.1539 8.98663 16.388 9.99782 17.3992C11.009 18.4103 12.2431 18.9159 13.7001 18.9159Z" fill="#EA580C"/>
</svg>
