<svg width="16" height="20" viewBox="0 0 16 20" fill="none" xmlns="http://www.w3.org/2000/svg">
<path d="M4.56562 10.7634C4.83744 10.7634 5.06849 10.6682 5.25877 10.4779C5.44905 10.2877 5.54419 10.0566 5.54419 9.78478C5.54419 9.51296 5.44905 9.28191 5.25877 9.09163C5.06849 8.90135 4.83744 8.80621 4.56562 8.80621C4.29379 8.80621 4.06274 8.90135 3.87246 9.09163C3.68218 9.28191 3.58704 9.51296 3.58704 9.78478C3.58704 10.0566 3.68218 10.2877 3.87246 10.4779C4.06274 10.6682 4.29379 10.7634 4.56562 10.7634ZM7.82752 10.7634C8.09935 10.7634 8.3304 10.6682 8.52068 10.4779C8.71095 10.2877 8.80609 10.0566 8.80609 9.78478C8.80609 9.51296 8.71095 9.28191 8.52068 9.09163C8.3304 8.90135 8.09935 8.80621 7.82752 8.80621C7.5557 8.80621 7.32464 8.90135 7.13437 9.09163C6.94409 9.28191 6.84895 9.51296 6.84895 9.78478C6.84895 10.0566 6.94409 10.2877 7.13437 10.4779C7.32464 10.6682 7.5557 10.7634 7.82752 10.7634ZM11.0894 10.7634C11.3613 10.7634 11.5923 10.6682 11.7826 10.4779C11.9729 10.2877 12.068 10.0566 12.068 9.78478C12.068 9.51296 11.9729 9.28191 11.7826 9.09163C11.5923 8.90135 11.3613 8.80621 11.0894 8.80621C10.8176 8.80621 10.5865 8.90135 10.3963 9.09163C10.206 9.28191 10.1109 9.51296 10.1109 9.78478C10.1109 10.0566 10.206 10.2877 10.3963 10.4779C10.5865 10.6682 10.8176 10.7634 11.0894 10.7634ZM7.82752 16.3086C6.92506 16.3086 6.07696 16.1373 5.28323 15.7948C4.4895 15.4523 3.79907 14.9875 3.21193 14.4004C2.62478 13.8132 2.15996 13.1228 1.81746 12.3291C1.47496 11.5353 1.30371 10.6872 1.30371 9.78478C1.30371 8.88232 1.47496 8.03423 1.81746 7.2405C2.15996 6.44677 2.62478 5.75633 3.21193 5.16919C3.79907 4.58205 4.4895 4.11722 5.28323 3.77472C6.07696 3.43222 6.92506 3.26097 7.82752 3.26097C8.72998 3.26097 9.57808 3.43222 10.3718 3.77472C11.1655 4.11722 11.856 4.58205 12.4431 5.16919C13.0303 5.75633 13.4951 6.44677 13.8376 7.2405C14.1801 8.03423 14.3513 8.88232 14.3513 9.78478C14.3513 10.6872 14.1801 11.5353 13.8376 12.3291C13.4951 13.1228 13.0303 13.8132 12.4431 14.4004C11.856 14.9875 11.1655 15.4523 10.3718 15.7948C9.57808 16.1373 8.72998 16.3086 7.82752 16.3086ZM7.82752 15.0038C9.2845 15.0038 10.5186 14.4982 11.5298 13.487C12.541 12.4759 13.0466 11.2418 13.0466 9.78478C13.0466 8.3278 12.541 7.09371 11.5298 6.08252C10.5186 5.07133 9.2845 4.56574 7.82752 4.56574C6.37054 4.56574 5.13645 5.07133 4.12526 6.08252C3.11407 7.09371 2.60847 8.3278 2.60847 9.78478C2.60847 11.2418 3.11407 12.4759 4.12526 13.487C5.13645 14.4982 6.37054 15.0038 7.82752 15.0038Z" fill="#EA580C"/>
</svg>
