<svg width="20" height="24" viewBox="0 0 20 24" fill="none" xmlns="http://www.w3.org/2000/svg">
<path d="M15.9832 19.082L10.8457 13.9445C10.438 14.2707 9.96906 14.529 9.439 14.7192C8.90894 14.9095 8.3449 15.0047 7.74688 15.0047C6.26544 15.0047 5.01164 14.4916 3.9855 13.4654C2.95936 12.4393 2.44629 11.1855 2.44629 9.70405C2.44629 8.22261 2.95936 6.96881 3.9855 5.94267C5.01164 4.91653 6.26544 4.40346 7.74688 4.40346C9.22833 4.40346 10.4821 4.91653 11.5083 5.94267C12.5344 6.96881 13.0475 8.22261 13.0475 9.70405C13.0475 10.3021 12.9523 10.8661 12.7621 11.3962C12.5718 11.9262 12.3136 12.3951 11.9874 12.8029L17.1249 17.9404L15.9832 19.082ZM7.74688 13.3737C8.76623 13.3737 9.63267 13.0169 10.3462 12.3034C11.0598 11.5898 11.4165 10.7234 11.4165 9.70405C11.4165 8.68471 11.0598 7.81827 10.3462 7.10472C9.63267 6.39118 8.76623 6.03441 7.74688 6.03441C6.72754 6.03441 5.8611 6.39118 5.14755 7.10472C4.43401 7.81827 4.07724 8.68471 4.07724 9.70405C4.07724 10.7234 4.43401 11.5898 5.14755 12.3034C5.8611 13.0169 6.72754 13.3737 7.74688 13.3737Z" fill="#9CA3AF"/>
</svg>
