<svg width="62" height="54" viewBox="0 0 62 54" fill="none" xmlns="http://www.w3.org/2000/svg">
<path d="M0 53.4062L30.9195 -0.000232697L61.8391 53.4062H0ZM9.69749 47.7845H52.1416L30.9195 11.2432L9.69749 47.7845ZM30.9195 44.9736C31.716 44.9736 32.3835 44.7043 32.9223 44.1655C33.461 43.6268 33.7304 42.9592 33.7304 42.1628C33.7304 41.3664 33.461 40.6988 32.9223 40.16C32.3835 39.6213 31.716 39.3519 30.9195 39.3519C30.1231 39.3519 29.4555 39.6213 28.9168 40.16C28.378 40.6988 28.1087 41.3664 28.1087 42.1628C28.1087 42.9592 28.378 43.6268 28.9168 44.1655C29.4555 44.7043 30.1231 44.9736 30.9195 44.9736ZM28.1087 36.541H33.7304V22.4867H28.1087V36.541Z" fill="#F97316"/>
</svg>
