<svg width="21" height="25" viewBox="0 0 21 25" fill="none" xmlns="http://www.w3.org/2000/svg">
<path d="M3.37257 14.8975C2.66985 14.8975 2.07254 14.6515 1.58064 14.1596C1.08874 13.6677 0.842791 13.0704 0.842791 12.3677C0.842791 11.665 1.08874 11.0677 1.58064 10.5758C2.07254 10.0839 2.66985 9.83791 3.37257 9.83791V8.15139C3.37257 7.6876 3.53771 7.29056 3.86799 6.96028C4.19826 6.63001 4.5953 6.46487 5.05909 6.46487H7.58887C7.58887 5.76215 7.83482 5.16484 8.32672 4.67294C8.81863 4.18104 9.41594 3.93509 10.1187 3.93509C10.8214 3.93509 11.4187 4.18104 11.9106 4.67294C12.4025 5.16484 12.6484 5.76215 12.6484 6.46487H15.1782C15.642 6.46487 16.039 6.63001 16.3693 6.96028C16.6996 7.29056 16.8647 7.6876 16.8647 8.15139V9.83791C17.5674 9.83791 18.1648 10.0839 18.6567 10.5758C19.1486 11.0677 19.3945 11.665 19.3945 12.3677C19.3945 13.0704 19.1486 13.6677 18.6567 14.1596C18.1648 14.6515 17.5674 14.8975 16.8647 14.8975V18.2705C16.8647 18.7343 16.6996 19.1313 16.3693 19.4616C16.039 19.7919 15.642 19.957 15.1782 19.957H5.05909C4.5953 19.957 4.19826 19.7919 3.86799 19.4616C3.53771 19.1313 3.37257 18.7343 3.37257 18.2705V14.8975ZM7.58887 13.2109C7.94023 13.2109 8.23888 13.088 8.48484 12.842C8.73079 12.5961 8.85376 12.2974 8.85376 11.9461C8.85376 11.5947 8.73079 11.296 8.48484 11.0501C8.23888 10.8041 7.94023 10.6812 7.58887 10.6812C7.23751 10.6812 6.93886 10.8041 6.69291 11.0501C6.44696 11.296 6.32398 11.5947 6.32398 11.9461C6.32398 12.2974 6.44696 12.5961 6.69291 12.842C6.93886 13.088 7.23751 13.2109 7.58887 13.2109ZM12.6484 13.2109C12.9998 13.2109 13.2984 13.088 13.5444 12.842C13.7903 12.5961 13.9133 12.2974 13.9133 11.9461C13.9133 11.5947 13.7903 11.296 13.5444 11.0501C13.2984 10.8041 12.9998 10.6812 12.6484 10.6812C12.2971 10.6812 11.9984 10.8041 11.7525 11.0501C11.5065 11.296 11.3835 11.5947 11.3835 11.9461C11.3835 12.2974 11.5065 12.5961 11.7525 12.842C11.9984 13.088 12.2971 13.2109 12.6484 13.2109ZM6.74561 16.584H13.4917V14.8975H6.74561V16.584ZM5.05909 18.2705H15.1782V8.15139H5.05909V18.2705Z" fill="#273054"/>
</svg>
