<svg width="57" height="57" viewBox="0 0 57 57" fill="none" xmlns="http://www.w3.org/2000/svg">
<path d="M28.1087 42.1625C28.9051 42.1625 29.5727 41.8931 30.1114 41.3543C30.6502 40.8156 30.9195 40.148 30.9195 39.3516C30.9195 38.5552 30.6502 37.8876 30.1114 37.3488C29.5727 36.8101 28.9051 36.5407 28.1087 36.5407C27.3123 36.5407 26.6447 36.8101 26.1059 37.3488C25.5672 37.8876 25.2978 38.5552 25.2978 39.3516C25.2978 40.148 25.5672 40.8156 26.1059 41.3543C26.6447 41.8931 27.3123 42.1625 28.1087 42.1625ZM25.2978 30.919H30.9195V14.0538H25.2978V30.919ZM28.1087 56.2168C24.2203 56.2168 20.5662 55.4789 17.1463 54.0032C13.7264 52.5275 10.7516 50.5248 8.22179 47.995C5.69201 45.4652 3.68926 42.4904 2.21356 39.0705C0.737853 35.6506 0 31.9965 0 28.1081C0 24.2198 0.737853 20.5656 2.21356 17.1457C3.68926 13.7258 5.69201 10.751 8.22179 8.22124C10.7516 5.69146 13.7264 3.68871 17.1463 2.21301C20.5662 0.737301 24.2203 -0.000553131 28.1087 -0.000553131C31.997 -0.000553131 35.6512 0.737301 39.0711 2.21301C42.4909 3.68871 45.4658 5.69146 47.9956 8.22124C50.5253 10.751 52.5281 13.7258 54.0038 17.1457C55.4795 20.5656 56.2174 24.2198 56.2174 28.1081C56.2174 31.9965 55.4795 35.6506 54.0038 39.0705C52.5281 42.4904 50.5253 45.4652 47.9956 47.995C45.4658 50.5248 42.4909 52.5275 39.0711 54.0032C35.6512 55.4789 31.997 56.2168 28.1087 56.2168ZM28.1087 50.5951C34.3863 50.5951 39.7035 48.4166 44.0603 44.0598C48.4172 39.703 50.5956 34.3857 50.5956 28.1081C50.5956 21.8305 48.4172 16.5133 44.0603 12.1564C39.7035 7.79961 34.3863 5.62118 28.1087 5.62118C21.8311 5.62118 16.5138 7.79961 12.157 12.1564C7.80016 16.5133 5.62173 21.8305 5.62173 28.1081C5.62173 34.3857 7.80016 39.703 12.157 44.0598C16.5138 48.4166 21.8311 50.5951 28.1087 50.5951Z" fill="#EF4444"/>
</svg>
