<svg width="21" height="25" viewBox="0 0 21 25" fill="none" xmlns="http://www.w3.org/2000/svg">
<path d="M10.1187 14.0552L8.43213 12.3687L10.1187 10.6821L11.8052 12.3687L10.1187 14.0552ZM8.32672 9.10104L6.21857 6.99289L10.1187 3.09281L14.0187 6.99289L11.9106 9.10104L10.1187 7.30911L8.32672 9.10104ZM4.74287 16.2687L0.842791 12.3687L4.74287 8.46859L6.85102 10.5767L5.05909 12.3687L6.85102 14.1606L4.74287 16.2687ZM15.4944 16.2687L13.3863 14.1606L15.1782 12.3687L13.3863 10.5767L15.4944 8.46859L19.3945 12.3687L15.4944 16.2687ZM10.1187 21.6445L6.21857 17.7445L8.32672 15.6363L10.1187 17.4282L11.9106 15.6363L14.0187 17.7445L10.1187 21.6445Z" fill="#273054"/>
</svg>
