<svg width="21" height="25" viewBox="0 0 21 25" fill="none" xmlns="http://www.w3.org/2000/svg">
<path d="M10.1187 20.8008C8.1651 20.3089 6.55237 19.188 5.28045 17.4383C4.00853 15.6885 3.37257 13.7455 3.37257 11.6092V6.46536L10.1187 3.93558L16.8647 6.46536V11.6092C16.8647 13.7455 16.2288 15.6885 14.9569 17.4383C13.6849 19.188 12.0722 20.3089 10.1187 20.8008ZM10.1187 19.0299C11.4819 18.6083 12.6203 17.7756 13.5339 16.5318C14.4474 15.288 14.9815 13.9001 15.1361 12.3682H10.1187V5.7275L5.05909 7.62484V11.6092C5.05909 11.7638 5.05909 11.8903 5.05909 11.9887C5.05909 12.0871 5.07315 12.2136 5.10126 12.3682H10.1187V19.0299Z" fill="#273054"/>
</svg>
