<svg width="68" height="81" viewBox="0 0 68 81" fill="none" xmlns="http://www.w3.org/2000/svg">
<g opacity="0.1">
<path d="M2.81155 65.7754L33.7311 12.3689L64.6506 65.7754H2.81155ZM12.509 60.1537H54.9531L33.7311 23.6124L12.509 60.1537ZM33.7311 57.3428C34.5275 57.3428 35.1951 57.0734 35.7338 56.5347C36.2726 55.9959 36.542 55.3283 36.542 54.5319C36.542 53.7355 36.2726 53.0679 35.7338 52.5292C35.1951 51.9904 34.5275 51.7211 33.7311 51.7211C32.9347 51.7211 32.2671 51.9904 31.7284 52.5292C31.1896 53.0679 30.9202 53.7355 30.9202 54.5319C30.9202 55.3283 31.1896 55.9959 31.7284 56.5347C32.2671 57.0734 32.9347 57.3428 33.7311 57.3428ZM30.9202 48.9102H36.542V34.8558H30.9202V48.9102Z" fill="#F97316"/>
</g>
</svg>
