<svg width="51" height="60" viewBox="0 0 51 60" fill="none" xmlns="http://www.w3.org/2000/svg">
<path d="M16.8652 5.62086V-0.000873566H33.7304V5.62086H16.8652ZM22.4869 36.5404H28.1087V19.6752H22.4869V36.5404ZM25.2978 59.0273C21.8311 59.0273 18.5634 58.3598 15.4949 57.0246C12.4264 55.6894 9.74434 53.8741 7.4488 51.5785C5.15326 49.283 3.33791 46.601 2.00274 43.5324C0.667581 40.4639 0 37.1963 0 33.7295C0 30.2628 0.667581 26.9952 2.00274 23.9266C3.33791 20.8581 5.15326 18.1761 7.4488 15.8805C9.74434 13.585 12.4264 11.7696 15.4949 10.4345C18.5634 9.09931 21.8311 8.43173 25.2978 8.43173C28.2024 8.43173 30.9898 8.90021 33.6601 9.83716C36.3305 10.7741 38.8368 12.1327 41.1792 13.9129L45.1144 9.97771L49.0496 13.9129L45.1144 17.8481C46.8946 20.1905 48.2532 22.6969 49.1902 25.3672C50.1271 28.0375 50.5956 30.825 50.5956 33.7295C50.5956 37.1963 49.928 40.4639 48.5929 43.5324C47.2577 46.601 45.4424 49.283 43.1468 51.5785C40.8513 53.8741 38.1692 55.6894 35.1007 57.0246C32.0322 58.3598 28.7645 59.0273 25.2978 59.0273ZM25.2978 53.4056C30.7322 53.4056 35.3701 51.4848 39.2116 47.6433C43.0531 43.8018 44.9739 39.1639 44.9739 33.7295C44.9739 28.2952 43.0531 23.6573 39.2116 19.8157C35.3701 15.9742 30.7322 14.0535 25.2978 14.0535C19.8635 14.0535 15.2255 15.9742 11.384 19.8157C7.54249 23.6573 5.62173 28.2952 5.62173 33.7295C5.62173 39.1639 7.54249 43.8018 11.384 47.6433C15.2255 51.4848 19.8635 53.4056 25.2978 53.4056Z" fill="#0D59F2"/>
</svg>
