<svg width="68" height="81" viewBox="0 0 68 81" fill="none" xmlns="http://www.w3.org/2000/svg">
<g opacity="0.1">
<path d="M25.2978 15.1795V9.55772H42.163V15.1795H25.2978ZM30.9195 46.099H36.5412V29.2338H30.9195V46.099ZM33.7304 68.5859C30.2636 68.5859 26.996 67.9184 23.9275 66.5832C20.8589 65.248 18.1769 63.4327 15.8814 61.1371C13.5858 58.8416 11.7705 56.1596 10.4353 53.091C9.10014 50.0225 8.43256 46.7549 8.43256 43.2881C8.43256 39.8214 9.10014 36.5538 10.4353 33.4852C11.7705 30.4167 13.5858 27.7347 15.8814 25.4391C18.1769 23.1436 20.8589 21.3282 23.9275 19.9931C26.996 18.6579 30.2636 17.9903 33.7304 17.9903C36.6349 17.9903 39.4224 18.4588 42.0927 19.3958C44.763 20.3327 47.2694 21.6913 49.6118 23.4715L53.547 19.5363L57.4822 23.4715L53.547 27.4067C55.3272 29.7491 56.6858 32.2555 57.6227 34.9258C58.5597 37.5961 59.0282 40.3836 59.0282 43.2881C59.0282 46.7549 58.3606 50.0225 57.0254 53.091C55.6903 56.1596 53.8749 58.8416 51.5794 61.1371C49.2838 63.4327 46.6018 65.248 43.5333 66.5832C40.4647 67.9184 37.1971 68.5859 33.7304 68.5859ZM33.7304 62.9642C39.1647 62.9642 43.8026 61.0434 47.6442 57.2019C51.4857 53.3604 53.4064 48.7225 53.4064 43.2881C53.4064 37.8538 51.4857 33.2159 47.6442 29.3743C43.8026 25.5328 39.1647 23.6121 33.7304 23.6121C28.296 23.6121 23.6581 25.5328 19.8166 29.3743C15.9751 33.2159 14.0543 37.8538 14.0543 43.2881C14.0543 48.7225 15.9751 53.3604 19.8166 57.2019C23.6581 61.0434 28.296 62.9642 33.7304 62.9642Z" fill="#0D59F2"/>
</g>
</svg>
