<svg width="32" height="32" viewBox="0 0 32 32" fill="none" xmlns="http://www.w3.org/2000/svg">
<path d="M15.7413 19.4899C16.9125 19.4899 17.908 19.08 18.7279 18.2602C19.5477 17.4403 19.9576 16.4448 19.9576 15.2736C19.9576 14.1024 19.5477 13.1069 18.7279 12.2871C17.908 11.4672 16.9125 11.0573 15.7413 11.0573C14.5701 11.0573 13.5746 11.4672 12.7548 12.2871C11.9349 13.1069 11.525 14.1024 11.525 15.2736C11.525 16.4448 11.9349 17.4403 12.7548 18.2602C13.5746 19.08 14.5701 19.4899 15.7413 19.4899ZM15.7413 17.8034C15.0386 17.8034 14.4413 17.5574 13.9494 17.0655C13.4575 16.5736 13.2115 15.9763 13.2115 15.2736C13.2115 14.5709 13.4575 13.9736 13.9494 13.4817C14.4413 12.9898 15.0386 12.7438 15.7413 12.7438C16.444 12.7438 17.0414 12.9898 17.5333 13.4817C18.0252 13.9736 18.2711 14.5709 18.2711 15.2736C18.2711 15.9763 18.0252 16.5736 17.5333 17.0655C17.0414 17.5574 16.444 17.8034 15.7413 17.8034ZM15.7413 22.3008C13.4614 22.3008 11.3845 21.6644 9.51057 20.3917C7.63666 19.119 6.27807 17.413 5.43481 15.2736C6.27807 13.1342 7.63666 11.4282 9.51057 10.1555C11.3845 8.88279 13.4614 8.24645 15.7413 8.24645C18.0213 8.24645 20.0982 8.88279 21.9721 10.1555C23.846 11.4282 25.2046 13.1342 26.0478 15.2736C25.2046 17.413 23.846 19.119 21.9721 20.3917C20.0982 21.6644 18.0213 22.3008 15.7413 22.3008ZM15.7413 20.4269C17.5059 20.4269 19.1261 19.9623 20.6018 19.0331C22.0775 18.104 23.2057 16.8508 23.9865 15.2736C23.2057 13.6964 22.0775 12.4432 20.6018 11.5141C19.1261 10.5849 17.5059 10.1204 15.7413 10.1204C13.9767 10.1204 12.3566 10.5849 10.8809 11.5141C9.40516 12.4432 8.27691 13.6964 7.49612 15.2736C8.27691 16.8508 9.40516 18.104 10.8809 19.0331C12.3566 19.9623 13.9767 20.4269 15.7413 20.4269Z" fill="#0D59F2"/>
</svg>
