<svg width="32" height="32" viewBox="0 0 32 32" fill="none" xmlns="http://www.w3.org/2000/svg">
<path d="M15.7413 19.488C16.9125 19.488 17.908 19.078 18.7279 18.2582C19.5477 17.4384 19.9576 16.4429 19.9576 15.2717C19.9576 14.1005 19.5477 13.1049 18.7279 12.2851C17.908 11.4653 16.9125 11.0554 15.7413 11.0554C14.5701 11.0554 13.5746 11.4653 12.7548 12.2851C11.9349 13.1049 11.525 14.1005 11.525 15.2717C11.525 16.4429 11.9349 17.4384 12.7548 18.2582C13.5746 19.078 14.5701 19.488 15.7413 19.488ZM15.7413 17.8014C15.0386 17.8014 14.4413 17.5555 13.9494 17.0636C13.4575 16.5717 13.2115 15.9744 13.2115 15.2717C13.2115 14.5689 13.4575 13.9716 13.9494 13.4797C14.4413 12.9878 15.0386 12.7419 15.7413 12.7419C16.444 12.7419 17.0414 12.9878 17.5333 13.4797C18.0252 13.9716 18.2711 14.5689 18.2711 15.2717C18.2711 15.9744 18.0252 16.5717 17.5333 17.0636C17.0414 17.5555 16.444 17.8014 15.7413 17.8014ZM15.7413 22.2988C13.4614 22.2988 11.3845 21.6625 9.51057 20.3898C7.63666 19.1171 6.27807 17.411 5.43481 15.2717C6.27807 13.1323 7.63666 11.4262 9.51057 10.1535C11.3845 8.88084 13.4614 8.24449 15.7413 8.24449C18.0213 8.24449 20.0982 8.88084 21.9721 10.1535C23.846 11.4262 25.2046 13.1323 26.0478 15.2717C25.2046 17.411 23.846 19.1171 21.9721 20.3898C20.0982 21.6625 18.0213 22.2988 15.7413 22.2988ZM15.7413 20.4249C17.5059 20.4249 19.1261 19.9603 20.6018 19.0312C22.0775 18.102 23.2057 16.8489 23.9865 15.2717C23.2057 13.6945 22.0775 12.4413 20.6018 11.5121C19.1261 10.583 17.5059 10.1184 15.7413 10.1184C13.9767 10.1184 12.3566 10.583 10.8809 11.5121C9.40516 12.4413 8.27691 13.6945 7.49612 15.2717C8.27691 16.8489 9.40516 18.102 10.8809 19.0312C12.3566 19.9603 13.9767 20.4249 15.7413 20.4249Z" fill="#6B7280"/>
</svg>
