<svg width="20" height="22" viewBox="0 0 20 22" fill="none" xmlns="http://www.w3.org/2000/svg">
<path d="M2.18532 21.8535C1.58436 21.8535 1.0699 21.6395 0.641938 21.2116C0.213979 20.7836 0 20.2692 0 19.6682V4.37095C0 3.76999 0.213979 3.25553 0.641938 2.82757C1.0699 2.39961 1.58436 2.18563 2.18532 2.18563H3.27798V0.000314713H5.4633V2.18563H14.2046V0.000314713H16.3899V2.18563H17.4826C18.0835 2.18563 18.598 2.39961 19.0259 2.82757C19.4539 3.25553 19.6679 3.76999 19.6679 4.37095V19.6682C19.6679 20.2692 19.4539 20.7836 19.0259 21.2116C18.598 21.6395 18.0835 21.8535 17.4826 21.8535H2.18532ZM2.18532 19.6682H17.4826V8.7416H2.18532V19.6682ZM2.18532 6.55627H17.4826V4.37095H2.18532V6.55627Z" fill="#273054" fill-opacity="0.5"/>
</svg>
