<svg width="68" height="81" viewBox="0 0 68 81" fill="none" xmlns="http://www.w3.org/2000/svg">
<g opacity="0.1">
<path d="M33.7299 54.5316C34.5263 54.5316 35.1939 54.2622 35.7326 53.7235C36.2714 53.1847 36.5407 52.5171 36.5407 51.7207C36.5407 50.9243 36.2714 50.2567 35.7326 49.718C35.1939 49.1792 34.5263 48.9099 33.7299 48.9099C32.9335 48.9099 32.2659 49.1792 31.7271 49.718C31.1884 50.2567 30.919 50.9243 30.919 51.7207C30.919 52.5171 31.1884 53.1847 31.7271 53.7235C32.2659 54.2622 32.9335 54.5316 33.7299 54.5316ZM30.919 43.2881H36.5407V26.4229H30.919V43.2881ZM33.7299 68.5859C29.8415 68.5859 26.1874 67.8481 22.7675 66.3724C19.3476 64.8967 16.3728 62.8939 13.843 60.3642C11.3132 57.8344 9.31046 54.8595 7.83476 51.4396C6.35905 48.0198 5.6212 44.3656 5.6212 40.4773C5.6212 36.5889 6.35905 32.9348 7.83476 29.5149C9.31046 26.095 11.3132 23.1202 13.843 20.5904C16.3728 18.0606 19.3476 16.0579 22.7675 14.5821C26.1874 13.1064 29.8415 12.3686 33.7299 12.3686C37.6182 12.3686 41.2724 13.1064 44.6923 14.5821C48.1121 16.0579 51.087 18.0606 53.6168 20.5904C56.1465 23.1202 58.1493 26.095 59.625 29.5149C61.1007 32.9348 61.8386 36.5889 61.8386 40.4773C61.8386 44.3656 61.1007 48.0198 59.625 51.4396C58.1493 54.8595 56.1465 57.8344 53.6168 60.3642C51.087 62.8939 48.1121 64.8967 44.6923 66.3724C41.2724 67.8481 37.6182 68.5859 33.7299 68.5859ZM33.7299 62.9642C40.0075 62.9642 45.3247 60.7858 49.6815 56.4289C54.0384 52.0721 56.2168 46.7549 56.2168 40.4773C56.2168 34.1997 54.0384 28.8824 49.6815 24.5256C45.3247 20.1687 40.0075 17.9903 33.7299 17.9903C27.4523 17.9903 22.135 20.1687 17.7782 24.5256C13.4214 28.8824 11.2429 34.1997 11.2429 40.4773C11.2429 46.7549 13.4214 52.0721 17.7782 56.4289C22.135 60.7858 27.4523 62.9642 33.7299 62.9642Z" fill="#EF4444"/>
</g>
</svg>
