<svg width="21" height="25" viewBox="0 0 21 25" fill="none" xmlns="http://www.w3.org/2000/svg">
<path d="M3.37257 19.1152V17.4287H5.67046C4.95369 16.8103 4.39151 16.0654 3.98394 15.1941C3.57636 14.3227 3.37257 13.3811 3.37257 12.3692C3.37257 10.7951 3.85042 9.4072 4.80611 8.20556C5.76181 7.00391 6.97048 6.21335 8.43213 5.83389V7.60473C7.44833 7.95609 6.64021 8.56394 6.00776 9.42828C5.37532 10.2926 5.05909 11.2729 5.05909 12.3692C5.05909 13.1281 5.21018 13.8273 5.51234 14.4668C5.81451 15.1062 6.2256 15.6579 6.74561 16.1217V14.0557H8.43213V19.1152H3.37257ZM12.6484 19.1152C11.9457 19.1152 11.3484 18.8693 10.8565 18.3774C10.3646 17.8855 10.1187 17.2882 10.1187 16.5855C10.1187 15.9108 10.3506 15.3311 10.8143 14.8462C11.2781 14.3614 11.8473 14.1049 12.5219 14.0768C12.7609 13.5708 13.1157 13.1597 13.5866 12.8435C14.0574 12.5273 14.5879 12.3692 15.1782 12.3692C15.9231 12.3692 16.5661 12.6116 17.1072 13.0965C17.6483 13.5813 17.975 14.1822 18.0875 14.8989C18.6777 14.8989 19.1837 15.1027 19.6053 15.5103C20.027 15.9179 20.2378 16.4098 20.2378 16.986C20.2378 17.5763 20.034 18.0787 19.6264 18.4933C19.2188 18.9079 18.7199 19.1152 18.1296 19.1152H12.6484ZM15.0939 11.5259C14.9955 10.9497 14.8058 10.4156 14.5247 9.9237C14.2436 9.4318 13.8993 8.99611 13.4917 8.61665V10.6826H11.8052V5.62307H16.8647V7.30959H14.5669C15.1712 7.84366 15.6666 8.46908 16.0531 9.18585C16.4396 9.90262 16.6891 10.6826 16.8015 11.5259H15.0939ZM12.6484 17.4287H18.1296C18.2421 17.4287 18.3404 17.3866 18.4248 17.3022C18.5091 17.2179 18.5513 17.1195 18.5513 17.0071C18.5513 16.8946 18.5091 16.7963 18.4248 16.7119C18.3404 16.6276 18.2421 16.5855 18.1296 16.5855H16.6539V15.5314C16.6539 15.1238 16.5099 14.776 16.2218 14.4878C15.9336 14.1997 15.5858 14.0557 15.1782 14.0557C14.7706 14.0557 14.4228 14.1997 14.1347 14.4878C13.8466 14.776 13.7025 15.1238 13.7025 15.5314V15.7422H12.6484C12.4095 15.7422 12.2092 15.823 12.0476 15.9846C11.886 16.1463 11.8052 16.3465 11.8052 16.5855C11.8052 16.8244 11.886 17.0247 12.0476 17.1863C12.2092 17.3479 12.4095 17.4287 12.6484 17.4287Z" fill="#273054"/>
</svg>
