<svg width="21" height="25" viewBox="0 0 21 25" fill="none" xmlns="http://www.w3.org/2000/svg">
<path d="M10.1187 19.957C7.99645 19.957 6.20101 19.6303 4.73233 18.9767C3.26365 18.3232 2.52931 17.5256 2.52931 16.584V8.15139C2.52931 7.2238 3.27068 6.42973 4.75341 5.76918C6.23614 5.10862 8.02456 4.77835 10.1187 4.77835C12.2128 4.77835 14.0012 5.10862 15.4839 5.76918C16.9666 6.42973 17.708 7.2238 17.708 8.15139V16.584C17.708 17.5256 16.9737 18.3232 15.505 18.9767C14.0363 19.6303 12.2409 19.957 10.1187 19.957ZM10.1187 9.85899C11.3695 9.85899 12.6274 9.6798 13.8922 9.32141C15.1571 8.96303 15.8669 8.58005 16.0215 8.17247C15.8669 7.76489 15.1606 7.3784 13.9028 7.01299C12.6449 6.64757 11.3835 6.46487 10.1187 6.46487C8.83971 6.46487 7.58536 6.64406 6.35561 7.00245C5.12585 7.36083 4.41259 7.75084 4.21583 8.17247C4.41259 8.5941 5.12585 8.98059 6.35561 9.33195C7.58536 9.68331 8.83971 9.85899 10.1187 9.85899ZM10.1187 14.0542C10.7089 14.0542 11.2781 14.0261 11.8263 13.9699C12.3744 13.9137 12.8979 13.8329 13.3968 13.7274C13.8958 13.622 14.3666 13.492 14.8093 13.3374C15.252 13.1828 15.6561 13.0072 16.0215 12.8104V10.2806C15.6561 10.4774 15.252 10.6531 14.8093 10.8077C14.3666 10.9623 13.8958 11.0923 13.3968 11.1977C12.8979 11.3031 12.3744 11.3839 11.8263 11.4401C11.2781 11.4963 10.7089 11.5244 10.1187 11.5244C9.52837 11.5244 8.95214 11.4963 8.38997 11.4401C7.8278 11.3839 7.29725 11.3031 6.79832 11.1977C6.29939 11.0923 5.83208 10.9623 5.3964 10.8077C4.96071 10.6531 4.56719 10.4774 4.21583 10.2806V12.8104C4.56719 13.0072 4.96071 13.1828 5.3964 13.3374C5.83208 13.492 6.29939 13.622 6.79832 13.7274C7.29725 13.8329 7.8278 13.9137 8.38997 13.9699C8.95214 14.0261 9.52837 14.0542 10.1187 14.0542ZM10.1187 18.2705C10.7652 18.2705 11.4222 18.2213 12.0898 18.1229C12.7574 18.0246 13.3722 17.8946 13.9344 17.7329C14.4966 17.5713 14.9674 17.3886 15.3469 17.1848C15.7263 16.981 15.9512 16.7737 16.0215 16.5629V14.4969C15.6561 14.6937 15.252 14.8694 14.8093 15.024C14.3666 15.1786 13.8958 15.3086 13.3968 15.414C12.8979 15.5194 12.3744 15.6002 11.8263 15.6564C11.2781 15.7126 10.7089 15.7407 10.1187 15.7407C9.52837 15.7407 8.95214 15.7126 8.38997 15.6564C7.8278 15.6002 7.29725 15.5194 6.79832 15.414C6.29939 15.3086 5.83208 15.1786 5.3964 15.024C4.96071 14.8694 4.56719 14.6937 4.21583 14.4969V16.584C4.2861 16.7948 4.50746 16.9986 4.8799 17.1954C5.25234 17.3921 5.71965 17.5713 6.28182 17.7329C6.84399 17.8946 7.46238 18.0246 8.13699 18.1229C8.8116 18.2213 9.47215 18.2705 10.1187 18.2705Z" fill="#273054"/>
</svg>
