<svg width="51" height="54" viewBox="0 0 51 54" fill="none" xmlns="http://www.w3.org/2000/svg">
<path d="M12.6489 8.43237C11.4777 8.43237 10.4822 8.84229 9.66236 9.66212C8.84252 10.482 8.4326 11.4775 8.4326 12.6487C8.4326 13.8199 8.84252 14.8154 9.66236 15.6352C10.4822 16.4551 11.4777 16.865 12.6489 16.865C13.8201 16.865 14.8156 16.4551 15.6355 15.6352C16.4553 14.8154 16.8652 13.8199 16.8652 12.6487C16.8652 11.4775 16.4553 10.482 15.6355 9.66212C14.8156 8.84229 13.8201 8.43237 12.6489 8.43237ZM12.6489 36.541C11.4777 36.541 10.4822 36.951 9.66236 37.7708C8.84252 38.5906 8.4326 39.5862 8.4326 40.7573C8.4326 41.9285 8.84252 42.9241 9.66236 43.7439C10.4822 44.5637 11.4777 44.9736 12.6489 44.9736C13.8201 44.9736 14.8156 44.5637 15.6355 43.7439C16.4553 42.9241 16.8652 41.9285 16.8652 40.7573C16.8652 39.5862 16.4553 38.5906 15.6355 37.7708C14.8156 36.951 13.8201 36.541 12.6489 36.541ZM2.81087 -0.000232697H47.7847C48.5812 -0.000232697 49.2487 0.269142 49.7875 0.807892C50.3262 1.34664 50.5956 2.01423 50.5956 2.81063V22.4867C50.5956 23.2831 50.3262 23.9507 49.7875 24.4895C49.2487 25.0282 48.5812 25.2976 47.7847 25.2976H2.81087C2.01446 25.2976 1.34687 25.0282 0.808124 24.4895C0.269375 23.9507 0 23.2831 0 22.4867V2.81063C0 2.01423 0.269375 1.34664 0.808124 0.807892C1.34687 0.269142 2.01446 -0.000232697 2.81087 -0.000232697ZM5.62173 5.6215V19.6758H44.9739V5.6215H5.62173ZM2.81087 28.1084H47.7847C48.5812 28.1084 49.2487 28.3778 49.7875 28.9166C50.3262 29.4553 50.5956 30.1229 50.5956 30.9193V50.5954C50.5956 51.3918 50.3262 52.0594 49.7875 52.5981C49.2487 53.1369 48.5812 53.4062 47.7847 53.4062H2.81087C2.01446 53.4062 1.34687 53.1369 0.808124 52.5981C0.269375 52.0594 0 51.3918 0 50.5954V30.9193C0 30.1229 0.269375 29.4553 0.808124 28.9166C1.34687 28.3778 2.01446 28.1084 2.81087 28.1084ZM5.62173 33.7302V47.7845H44.9739V33.7302H5.62173Z" fill="#A855F7"/>
</svg>
