<svg width="68" height="81" viewBox="0 0 68 81" fill="none" xmlns="http://www.w3.org/2000/svg">
<g opacity="0.1">
<path d="M21.0808 23.6121C19.9096 23.6121 18.9141 24.022 18.0942 24.8418C17.2744 25.6616 16.8645 26.6572 16.8645 27.8284C16.8645 28.9996 17.2744 29.9951 18.0942 30.8149C18.9141 31.6347 19.9096 32.0447 21.0808 32.0447C22.252 32.0447 23.2475 31.6347 24.0673 30.8149C24.8872 29.9951 25.2971 28.9996 25.2971 27.8284C25.2971 26.6572 24.8872 25.6616 24.0673 24.8418C23.2475 24.022 22.252 23.6121 21.0808 23.6121ZM21.0808 51.7207C19.9096 51.7207 18.9141 52.1307 18.0942 52.9505C17.2744 53.7703 16.8645 54.7658 16.8645 55.937C16.8645 57.1082 17.2744 58.1037 18.0942 58.9236C18.9141 59.7434 19.9096 60.1533 21.0808 60.1533C22.252 60.1533 23.2475 59.7434 24.0673 58.9236C24.8872 58.1037 25.2971 57.1082 25.2971 55.937C25.2971 54.7658 24.8872 53.7703 24.0673 52.9505C23.2475 52.1307 22.252 51.7207 21.0808 51.7207ZM11.2428 15.1795H56.2166C57.013 15.1795 57.6806 15.4488 58.2194 15.9876C58.7581 16.5263 59.0275 17.1939 59.0275 17.9903V37.6664C59.0275 38.4628 58.7581 39.1304 58.2194 39.6691C57.6806 40.2079 57.013 40.4773 56.2166 40.4773H11.2428C10.4463 40.4773 9.77876 40.2079 9.24001 39.6691C8.70126 39.1304 8.43188 38.4628 8.43188 37.6664V17.9903C8.43188 17.1939 8.70126 16.5263 9.24001 15.9876C9.77876 15.4488 10.4463 15.1795 11.2428 15.1795ZM14.0536 20.8012V34.8555H53.4058V20.8012H14.0536ZM11.2428 43.2881H56.2166C57.013 43.2881 57.6806 43.5575 58.2194 44.0963C58.7581 44.635 59.0275 45.3026 59.0275 46.099V65.7751C59.0275 66.5715 58.7581 67.2391 58.2194 67.7778C57.6806 68.3166 57.013 68.5859 56.2166 68.5859H11.2428C10.4463 68.5859 9.77876 68.3166 9.24001 67.7778C8.70126 67.2391 8.43188 66.5715 8.43188 65.7751V46.099C8.43188 45.3026 8.70126 44.635 9.24001 44.0963C9.77876 43.5575 10.4463 43.2881 11.2428 43.2881ZM14.0536 48.9099V62.9642H53.4058V48.9099H14.0536Z" fill="#A855F7"/>
</g>
</svg>
