<svg width="19" height="14" viewBox="0 0 19 14" fill="none" xmlns="http://www.w3.org/2000/svg">
<path d="M10.9624 7.58937C10.2597 7.58937 9.66236 7.34342 9.17045 6.85151C8.67855 6.35961 8.4326 5.7623 8.4326 5.05959C8.4326 4.35687 8.67855 3.75956 9.17045 3.26766C9.66236 2.77576 10.2597 2.52981 10.9624 2.52981C11.6651 2.52981 12.2624 2.77576 12.7543 3.26766C13.2462 3.75956 13.4922 4.35687 13.4922 5.05959C13.4922 5.7623 13.2462 6.35961 12.7543 6.85151C12.2624 7.34342 11.6651 7.58937 10.9624 7.58937ZM5.05956 10.1191C4.59577 10.1191 4.19873 9.95401 3.86846 9.62373C3.53818 9.29345 3.37304 8.89642 3.37304 8.43263V1.68655C3.37304 1.22275 3.53818 0.825718 3.86846 0.49544C4.19873 0.165164 4.59577 2.47955e-05 5.05956 2.47955e-05H16.8652C17.329 2.47955e-05 17.726 0.165164 18.0563 0.49544C18.3866 0.825718 18.5517 1.22275 18.5517 1.68655V8.43263C18.5517 8.89642 18.3866 9.29345 18.0563 9.62373C17.726 9.95401 17.329 10.1191 16.8652 10.1191H5.05956ZM6.74608 8.43263H15.1787C15.1787 7.96883 15.3438 7.5718 15.6741 7.24152C16.0044 6.91124 16.4014 6.74611 16.8652 6.74611V3.37307C16.4014 3.37307 16.0044 3.20793 15.6741 2.87765C15.3438 2.54737 15.1787 2.15034 15.1787 1.68655H6.74608C6.74608 2.15034 6.58094 2.54737 6.25067 2.87765C5.92039 3.20793 5.52335 3.37307 5.05956 3.37307V6.74611C5.52335 6.74611 5.92039 6.91124 6.25067 7.24152C6.58094 7.5718 6.74608 7.96883 6.74608 8.43263ZM16.0219 13.4922H1.68652C1.22273 13.4922 0.825692 13.327 0.495415 12.9968C0.165138 12.6665 0 12.2695 0 11.8057V2.52981H1.68652V11.8057H16.0219V13.4922Z" fill="#273054"/>
</svg>
