<svg width="20" height="20" viewBox="0 0 20 20" fill="none" xmlns="http://www.w3.org/2000/svg">
<path d="M18.1457 19.6758L11.2591 12.7892C10.7125 13.2264 10.084 13.5726 9.37346 13.8276C8.66294 14.0827 7.90687 14.2102 7.10525 14.2102C5.11942 14.2102 3.43876 13.5225 2.06325 12.147C0.687752 10.7714 0 9.09078 0 7.10496C0 5.11913 0.687752 3.43847 2.06325 2.06297C3.43876 0.687462 5.11942 -0.000289917 7.10525 -0.000289917C9.09107 -0.000289917 10.7717 0.687462 12.1472 2.06297C13.5227 3.43847 14.2105 5.11913 14.2105 7.10496C14.2105 7.90658 14.083 8.66265 13.8279 9.37317C13.5728 10.0837 13.2267 10.7122 12.7894 11.2588L19.6761 18.1454L18.1457 19.6758ZM7.10525 12.024C8.47164 12.024 9.63308 11.5457 10.5896 10.5893C11.546 9.63279 12.0243 8.47135 12.0243 7.10496C12.0243 5.73856 11.546 4.57713 10.5896 3.62065C9.63308 2.66418 8.47164 2.18594 7.10525 2.18594C5.73885 2.18594 4.57742 2.66418 3.62094 3.62065C2.66447 4.57713 2.18623 5.73856 2.18623 7.10496C2.18623 8.47135 2.66447 9.63279 3.62094 10.5893C4.57742 11.5457 5.73885 12.024 7.10525 12.024Z" fill="#273054" fill-opacity="0.5"/>
</svg>
