<svg width="27" height="32" viewBox="0 0 27 32" fill="none" xmlns="http://www.w3.org/2000/svg">
<path d="M21.8101 25.5781L14.9235 18.6915C14.3769 19.1287 13.7484 19.4749 13.0378 19.73C12.3273 19.985 11.5712 20.1125 10.7696 20.1125C8.78379 20.1125 7.10313 19.4248 5.72762 18.0493C4.35212 16.6738 3.66437 14.9931 3.66437 13.0073C3.66437 11.0215 4.35212 9.34081 5.72762 7.96531C7.10313 6.58981 8.78379 5.90205 10.7696 5.90205C12.7554 5.90205 14.4361 6.58981 15.8116 7.96531C17.1871 9.34081 17.8749 11.0215 17.8749 13.0073C17.8749 13.8089 17.7473 14.565 17.4923 15.2755C17.2372 15.986 16.8911 16.6146 16.4538 17.1611L23.3404 24.0478L21.8101 25.5781ZM10.7696 17.9263C12.136 17.9263 13.2974 17.4481 14.2539 16.4916C15.2104 15.5351 15.6886 14.3737 15.6886 13.0073C15.6886 11.6409 15.2104 10.4795 14.2539 9.523C13.2974 8.56652 12.136 8.08828 10.7696 8.08828C9.40322 8.08828 8.24179 8.56652 7.28531 9.523C6.32884 10.4795 5.8506 11.6409 5.8506 13.0073C5.8506 14.3737 6.32884 15.5351 7.28531 16.4916C8.24179 17.4481 9.40322 17.9263 10.7696 17.9263Z" fill="#273054" fill-opacity="0.5"/>
</svg>
